<?xml version="1.0" encoding="UTF-8" standalone="no"?>
<!-- Created with Inkscape (http://www.inkscape.org/) -->

<svg
   xmlns:dc="http://purl.org/dc/elements/1.1/"
   xmlns:cc="http://creativecommons.org/ns#"
   xmlns:rdf="http://www.w3.org/1999/02/22-rdf-syntax-ns#"
   xmlns:svg="http://www.w3.org/2000/svg"
   xmlns="http://www.w3.org/2000/svg"
   xmlns:xlink="http://www.w3.org/1999/xlink"
   xmlns:sodipodi="http://sodipodi.sourceforge.net/DTD/sodipodi-0.dtd"
   xmlns:inkscape="http://www.inkscape.org/namespaces/inkscape"
   width="96"
   height="96"
   id="svg2408"
   sodipodi:version="0.32"
   inkscape:version="0.47 r22583"
   version="1.0"
   sodipodi:docname="icon_concept.svg"
   inkscape:output_extension="org.inkscape.output.svg.inkscape"
   style="display:inline"
   inkscape:export-filename="/home/leo/Escritorio/avanzando_PFC/project/terminator/static/images/concept_16.png"
   inkscape:export-xdpi="15"
   inkscape:export-ydpi="15">
  <defs
     id="defs2410">
    <linearGradient
       id="linearGradient3614">
      <stop
         id="stop3616"
         offset="0"
         style="stop-color:#6da014;stop-opacity:1;" />
      <stop
         id="stop3618"
         offset="1"
         style="stop-color:#b4e844;stop-opacity:1;" />
    </linearGradient>
    <filter
       color-interpolation-filters="sRGB"
       id="filter4995-9"
       inkscape:collect="always">
      <feGaussianBlur
         id="feGaussianBlur4997-3"
         stdDeviation="1.8983236"
         inkscape:collect="always" />
    </filter>
    <linearGradient
       id="linearGradient3731-5">
      <stop
         style="stop-color:#dcdcdc;stop-opacity:1;"
         offset="0"
         id="stop3733-5" />
      <stop
         id="stop3757-1"
         offset="0.30654153"
         style="stop-color:#ebebeb;stop-opacity:1;" />
      <stop
         id="stop3737-9"
         offset="0.70706075"
         style="stop-color:#ffffff;stop-opacity:1" />
      <stop
         style="stop-color:#fafafa;stop-opacity:1"
         offset="0.84501493"
         id="stop3759-5" />
      <stop
         style="stop-color:#f0f0f0;stop-opacity:1;"
         offset="1"
         id="stop3735-7" />
    </linearGradient>
    <linearGradient
       id="linearGradient3737-9-0-7-7">
      <stop
         style="stop-color:#ffffff;stop-opacity:0.33333334;"
         offset="0"
         id="stop3739-2-6-1-3" />
      <stop
         style="stop-color:#ffffff;stop-opacity:0;"
         offset="1"
         id="stop3741-1-8-5-7" />
    </linearGradient>
    <filter
       id="filter3174-62"
       inkscape:collect="always"
       color-interpolation-filters="sRGB">
      <feGaussianBlur
         id="feGaussianBlur3176-4"
         stdDeviation="1.71"
         inkscape:collect="always" />
    </filter>
    <linearGradient
       gradientUnits="userSpaceOnUse"
       y2="7.0165396"
       x2="45.447727"
       y1="92.539597"
       x1="45.447727"
       gradientTransform="scale(1.0058652,0.994169)"
       id="ButtonShadow-86">
      <stop
         id="stop3750-0"
         offset="0"
         style="stop-color:#000000;stop-opacity:1;" />
      <stop
         id="stop3752-4"
         offset="1"
         style="stop-color:#000000;stop-opacity:0.58823532;" />
    </linearGradient>
    <filter
       color-interpolation-filters="sRGB"
       id="filter4900-2-2-5"
       inkscape:collect="always">
      <feGaussianBlur
         id="feGaussianBlur4902-9-3-3"
         stdDeviation="0.96171873"
         inkscape:collect="always" />
    </filter>
    <linearGradient
       inkscape:collect="always"
       xlink:href="#linearGradient3731-5"
       id="linearGradient4355"
       gradientUnits="userSpaceOnUse"
       gradientTransform="matrix(1.2248383,0,0,1.2248383,136.71785,-5.7975048)"
       x1="48.082497"
       y1="75.561722"
       x2="46.654823"
       y2="16.972879" />
    <linearGradient
       inkscape:collect="always"
       xlink:href="#linearGradient3614"
       id="linearGradient4357"
       gradientUnits="userSpaceOnUse"
       gradientTransform="matrix(1.1358369,0,0,1.1358369,140.98991,-1.4218893)"
       x1="50.630707"
       y1="61.373192"
       x2="50.630707"
       y2="26.422728" />
    <linearGradient
       inkscape:collect="always"
       xlink:href="#linearGradient3737-9-0-7-7"
       id="linearGradient4359"
       gradientUnits="userSpaceOnUse"
       gradientTransform="matrix(1.2248383,0,0,1.2248383,136.71785,-7.022894)"
       x1="48"
       y1="20.220806"
       x2="48"
       y2="138.66119" />
  </defs>
  <sodipodi:namedview
     id="base"
     pagecolor="#ffffff"
     bordercolor="#666666"
     borderopacity="1.0"
     inkscape:pageopacity="0.0"
     inkscape:pageshadow="2"
     inkscape:zoom="1.8723976"
     inkscape:cx="167.99964"
     inkscape:cy="44.888394"
     inkscape:document-units="px"
     inkscape:current-layer="layer4"
     showgrid="false"
     showborder="true"
     inkscape:showpageshadow="false"
     inkscape:window-width="1366"
     inkscape:window-height="677"
     inkscape:window-x="0"
     inkscape:window-y="32"
     inkscape:window-maximized="1"
     inkscape:snap-global="false">
    <inkscape:grid
       type="xygrid"
       id="grid3732"
       visible="true"
       enabled="true" />
  </sodipodi:namedview>
  <metadata
     id="metadata2413">
    <rdf:RDF>
      <cc:Work
         rdf:about="">
        <dc:format>image/svg+xml</dc:format>
        <dc:type
           rdf:resource="http://purl.org/dc/dcmitype/StillImage" />
        <dc:title></dc:title>
      </cc:Work>
    </rdf:RDF>
  </metadata>
  <g
     inkscape:groupmode="layer"
     id="layer4"
     inkscape:label="Symbol"
     style="display:inline">
    <g
       style="font-size:48px;font-style:normal;font-variant:normal;font-weight:normal;font-stretch:normal;text-align:start;line-height:125%;writing-mode:tb-rl;text-anchor:start;fill:#ff00ff;fill-opacity:1;stroke:none;font-family:American Participants;-inkscape-font-specification:American Participants"
       id="g3709"
       transform="matrix(0.94113621,0,0,0.94221106,4.5900791,2.5953791)" />
    <g
       id="layer2-5"
       inkscape:label="Blur Shadow"
       style="display:none"
       transform="translate(148,5.0000009)">
      <rect
         style="opacity:0.9;fill:url(#ButtonShadow-86);fill-opacity:1;fill-rule:nonzero;stroke:none;filter:url(#filter3174-62)"
         id="rect3745-4"
         width="86"
         height="85"
         x="5"
         y="7"
         rx="6"
         ry="6" />
    </g>
    <g
       id="layer6-0"
       inkscape:label="Shadow"
       style="display:inline"
       transform="translate(148,5.0000009)" />
    <g
       inkscape:label="Button"
       id="layer1-2"
       style="display:inline"
       transform="translate(148,5.0000009)" />
    <g
       id="layer5-1"
       inkscape:label="Highlight"
       style="display:inline"
       transform="translate(148,5.0000009)" />
    <g
       id="g4348"
       transform="matrix(1.0434783,0,0,1.0434783,-156.52175,-7.1739158)">
      <path
         transform="matrix(1.2248383,0,0,1.2248383,619.30414,-467.22159)"
         sodipodi:nodetypes="cscccssc"
         id="path3620-9-4"
         d="m -345.60002,394.72254 c -18.2254,0 -33,12.08831 -33,27 0,9.49844 5.99976,17.84346 15.0625,22.65625 -0.34463,2.50876 -1.91402,8.64982 -9.34375,10.75 9.62291,1.04582 16.0136,-3.6463 19.40625,-7.1875 2.5235,0.5055 5.16106,0.78125 7.875,0.78125 18.2254,0 33,-12.08831 33,-27 0,-14.91169 -14.7746,-27 -33,-27 z"
         style="fill:#808080;fill-opacity:1;stroke:none;display:inline;filter:url(#filter4995-9)" />
      <path
         sodipodi:nodetypes="cscccssc"
         id="path3620-8"
         d="m 195.51009,15.024746 c -22.32317,0 -40.41967,14.806225 -40.41967,33.070634 0,11.634054 7.34874,21.855354 18.44913,27.750243 -0.4221,3.072813 -2.34435,10.594631 -11.44458,13.167012 11.78651,1.28096 19.61407,-4.46614 23.76952,-8.803525 3.09089,0.619155 6.32147,0.956905 9.6456,0.956905 22.32317,0 40.41966,-14.806226 40.41966,-33.070635 0,-18.264409 -18.09649,-33.070634 -40.41966,-33.070634 z"
         style="fill:url(#linearGradient4355);fill-opacity:1;stroke:none;display:inline" />
      <path
         d="m 197.57439,29.609746 -2.67038,10.70932 7.34353,0 2.6982,-10.70932 6.14742,0 -2.69819,10.70932 7.70515,0 0,5.924896 -9.17942,0 -1.91933,7.621697 7.89987,0 0,5.980529 -9.34632,0 -2.67039,10.653687 -6.14742,0 2.67038,-10.653687 -7.34354,0 -2.67038,10.653687 -6.20304,0 2.67036,-10.653687 -7.76077,0 0,-5.980529 9.12379,0 1.94715,-7.621697 -7.87206,0 0,-5.924896 9.40194,0 2.67038,-10.70932 6.20307,0 m 3.14326,16.634216 -7.34354,0 -1.94715,7.621697 7.34353,0 1.94716,-7.621697"
         style="font-size:50.15510178px;font-style:normal;font-variant:normal;font-weight:bold;font-stretch:normal;text-align:start;line-height:125%;writing-mode:lr-tb;text-anchor:start;color:#000000;fill:#999999;fill-opacity:1;fill-rule:nonzero;stroke:none;marker:none;visibility:visible;display:inline;overflow:visible;filter:url(#filter4900-2-2-5);enable-background:accumulate;font-family:Sans;-inkscape-font-specification:Abandoned Bitplane Bold"
         id="path3658-2" />
      <path
         d="m 196.98435,28.109871 -2.67038,10.70932 7.34353,0 2.6982,-10.70932 6.14742,0 -2.69819,10.70932 7.70515,0 0,5.924896 -9.17942,0 -1.91933,7.621697 7.89987,0 0,5.980529 -9.34632,0 L 200.29449,69 l -6.14742,0 2.67038,-10.653687 -7.34354,0 L 186.80353,69 l -6.20304,0 2.67036,-10.653687 -7.76077,0 0,-5.980529 9.12379,0 1.94715,-7.621697 -7.87206,0 0,-5.924896 9.40194,0 2.67038,-10.70932 6.20307,0 m 3.14326,16.634216 -7.34354,0 -1.94715,7.621697 7.34353,0 1.94716,-7.621697"
         style="font-size:50.15510178px;font-style:normal;font-variant:normal;font-weight:bold;font-stretch:normal;text-align:start;line-height:125%;writing-mode:lr-tb;text-anchor:start;fill:url(#linearGradient4357);fill-opacity:1;stroke:none;font-family:Sans;-inkscape-font-specification:Abandoned Bitplane Bold"
         id="path3658" />
      <path
         sodipodi:nodetypes="cscccssc"
         id="path3620-0-0-6"
         d="m 195.51009,15.024305 c -22.32317,0 -40.41967,14.806225 -40.41967,33.070634 0,11.634054 7.34874,21.855354 18.44913,27.750243 -0.4221,3.072826 -2.34435,10.594631 -11.44458,13.167012 11.78651,1.28096 19.61407,-4.466128 23.76952,-8.803525 3.09089,0.619155 6.32147,0.956905 9.6456,0.956905 22.32317,0 40.41966,-14.806225 40.41966,-33.070635 0,-18.264409 -18.09649,-33.070634 -40.41966,-33.070634 z"
         style="color:#000000;fill:url(#linearGradient4359);fill-opacity:1;fill-rule:nonzero;stroke:none;stroke-width:0.5;marker:none;visibility:visible;display:inline;overflow:visible;enable-background:accumulate" />
    </g>
  </g>
</svg>
