<?xml version="1.0" encoding="UTF-8" standalone="no"?>
<!-- Created with Inkscape (http://www.inkscape.org/) -->

<svg
   xmlns:dc="http://purl.org/dc/elements/1.1/"
   xmlns:cc="http://creativecommons.org/ns#"
   xmlns:rdf="http://www.w3.org/1999/02/22-rdf-syntax-ns#"
   xmlns:svg="http://www.w3.org/2000/svg"
   xmlns="http://www.w3.org/2000/svg"
   xmlns:xlink="http://www.w3.org/1999/xlink"
   xmlns:sodipodi="http://sodipodi.sourceforge.net/DTD/sodipodi-0.dtd"
   xmlns:inkscape="http://www.inkscape.org/namespaces/inkscape"
   width="96"
   height="96"
   id="svg2408"
   sodipodi:version="0.32"
   inkscape:version="0.47 r22583"
   version="1.0"
   sodipodi:docname="icon_remove.svg"
   inkscape:output_extension="org.inkscape.output.svg.inkscape"
   style="display:inline">
  <defs
     id="defs2410">
    <inkscape:perspective
       sodipodi:type="inkscape:persp3d"
       inkscape:vp_x="0 : 48 : 1"
       inkscape:vp_y="0 : 1000 : 0"
       inkscape:vp_z="96 : 48 : 1"
       inkscape:persp3d-origin="48 : 32 : 1"
       id="perspective19" />
    <linearGradient
       id="linearGradient3183-0">
      <stop
         style="stop-color:#c80000;stop-opacity:1;"
         offset="0"
         id="stop3185-9" />
      <stop
         style="stop-color:#f3604d;stop-opacity:1;"
         offset="1"
         id="stop3187-6" />
    </linearGradient>
    <filter
       inkscape:collect="always"
       id="filter3733">
      <feGaussianBlur
         inkscape:collect="always"
         stdDeviation="1.26"
         id="feGaussianBlur3735" />
    </filter>
    <linearGradient
       inkscape:collect="always"
       xlink:href="#linearGradient3183-0"
       id="linearGradient3743"
       gradientUnits="userSpaceOnUse"
       gradientTransform="matrix(0,-1,1,0,160,96)"
       x1="27"
       y1="48"
       x2="69"
       y2="48" />
  </defs>
  <sodipodi:namedview
     id="base"
     pagecolor="#ffffff"
     bordercolor="#666666"
     borderopacity="1.0"
     inkscape:pageopacity="0.0"
     inkscape:pageshadow="2"
     inkscape:zoom="2.8946099"
     inkscape:cx="142.36611"
     inkscape:cy="48.492852"
     inkscape:document-units="px"
     inkscape:current-layer="layer6"
     showgrid="false"
     showborder="true"
     inkscape:showpageshadow="false"
     inkscape:window-width="1366"
     inkscape:window-height="677"
     inkscape:window-x="0"
     inkscape:window-y="32"
     inkscape:window-maximized="1"
     inkscape:snap-global="true">
    <inkscape:grid
       type="xygrid"
       id="grid3732"
       visible="true"
       enabled="true" />
  </sodipodi:namedview>
  <metadata
     id="metadata2413">
    <rdf:RDF>
      <cc:Work
         rdf:about="">
        <dc:format>image/svg+xml</dc:format>
        <dc:type
           rdf:resource="http://purl.org/dc/dcmitype/StillImage" />
        <dc:title></dc:title>
      </cc:Work>
    </rdf:RDF>
  </metadata>
  <g
     inkscape:groupmode="layer"
     id="layer6"
     inkscape:label="Symbol"
     style="display:inline">
    <g
       id="g3737"
       transform="matrix(1.998002,0,0,1.998002,-369.58242,-49.902098)"
       inkscape:export-filename="/home/leo/Escritorio/avanzando_PFC/project/terminator/static/images/icon_delete_16.png"
       inkscape:export-xdpi="15"
       inkscape:export-ydpi="15">
      <path
         id="path3724"
         d="M 188,60.666667 197.33333,70 209,58.333333 220.66667,70 230,60.666667 218.33333,49 230,37.333333 220.66667,28 209,39.666667 197.33333,28 188,37.333333 199.66667,49 188,60.666667 z"
         style="fill:#666666;fill-opacity:1;stroke:none;display:inline;filter:url(#filter3733)"
         inkscape:connector-curvature="0" />
      <path
         style="fill:url(#linearGradient3743);fill-opacity:1;stroke:none;display:inline"
         d="M 187,59.666667 196.33333,69 208,57.333333 219.66667,69 229,59.666667 217.33333,48 229,36.333333 219.66667,27 208,38.666667 196.33333,27 187,36.333333 198.66667,48 187,59.666667 z"
         id="path2929"
         inkscape:connector-curvature="0" />
      <path
         id="path3704"
         d="M 196.34375,27 187,36.34375 l 0.5,0.5 L 196.34375,28 208,39.65625 219.65625,28 228.5,36.84375 229,36.34375 219.65625,27 208,38.65625 196.34375,27 z m 1.8125,21.5 L 187,59.65625 l 0.5,0.5 L 198.65625,49 l -0.5,-0.5 z m 19.6875,0 -0.5,0.5 11.15625,11.15625 0.5,-0.5 L 217.84375,48.5 z"
         style="opacity:0.3;fill:#ffffff;fill-opacity:1;stroke:none;display:inline"
         inkscape:connector-curvature="0" />
      <path
         id="path3714"
         d="m 187.5,35.84375 -0.5,0.5 11.15625,11.15625 0.5,-0.5 L 187.5,35.84375 z m 41,0 L 217.34375,47 l 0.5,0.5 L 229,36.34375 l -0.5,-0.5 z M 208,56.34375 196.34375,68 187.5,59.15625 187,59.65625 196.34375,69 208,57.34375 219.65625,69 229,59.65625 l -0.5,-0.5 L 219.65625,68 208,56.34375 z"
         style="opacity:0.1;fill:#000000;fill-opacity:1;stroke:none;display:inline"
         inkscape:connector-curvature="0" />
    </g>
  </g>
</svg>
