<?xml version="1.0" encoding="UTF-8" standalone="no"?>
<!-- Created with Inkscape (http://www.inkscape.org/) -->

<svg
   xmlns:dc="http://purl.org/dc/elements/1.1/"
   xmlns:cc="http://creativecommons.org/ns#"
   xmlns:rdf="http://www.w3.org/1999/02/22-rdf-syntax-ns#"
   xmlns:svg="http://www.w3.org/2000/svg"
   xmlns="http://www.w3.org/2000/svg"
   xmlns:xlink="http://www.w3.org/1999/xlink"
   xmlns:sodipodi="http://sodipodi.sourceforge.net/DTD/sodipodi-0.dtd"
   xmlns:inkscape="http://www.inkscape.org/namespaces/inkscape"
   width="96"
   height="96"
   id="svg2408"
   sodipodi:version="0.32"
   inkscape:version="0.47 r22583"
   version="1.0"
   sodipodi:docname="icon_stop.svg"
   inkscape:output_extension="org.inkscape.output.svg.inkscape"
   style="display:inline">
  <defs
     id="defs2410">
    <linearGradient
       id="linearGradient3183-0">
      <stop
         style="stop-color:#c80000;stop-opacity:1;"
         offset="0"
         id="stop3185-9" />
      <stop
         style="stop-color:#f3604d;stop-opacity:1;"
         offset="1"
         id="stop3187-6" />
    </linearGradient>
    <linearGradient
       inkscape:collect="always"
       xlink:href="#linearGradient3183-0"
       id="linearGradient2945"
       gradientUnits="userSpaceOnUse"
       gradientTransform="matrix(-4.3333333,0,0,-4.3333333,82.666667,82.666667)"
       x1="6.5625"
       y1="2"
       x2="6.5625"
       y2="14.000651" />
  </defs>
  <sodipodi:namedview
     id="base"
     pagecolor="#ffffff"
     bordercolor="#666666"
     borderopacity="1.0"
     inkscape:pageopacity="0.0"
     inkscape:pageshadow="2"
     inkscape:zoom="4.4292467"
     inkscape:cx="45.600366"
     inkscape:cy="44.646884"
     inkscape:document-units="px"
     inkscape:current-layer="layer6"
     showgrid="false"
     showborder="true"
     inkscape:showpageshadow="false"
     inkscape:window-width="1366"
     inkscape:window-height="677"
     inkscape:window-x="0"
     inkscape:window-y="32"
     inkscape:window-maximized="1"
     inkscape:snap-global="true">
    <inkscape:grid
       type="xygrid"
       id="grid3732"
       visible="true"
       enabled="true"
       empspacing="5"
       snapvisiblegridlinesonly="true" />
  </sodipodi:namedview>
  <metadata
     id="metadata2413">
    <rdf:RDF>
      <cc:Work
         rdf:about="">
        <dc:format>image/svg+xml</dc:format>
        <dc:type
           rdf:resource="http://purl.org/dc/dcmitype/StillImage" />
        <dc:title />
      </cc:Work>
    </rdf:RDF>
  </metadata>
  <g
     inkscape:groupmode="layer"
     id="layer6"
     inkscape:label="Symbol"
     style="display:inline">
    <g
       id="g2937"
       transform="matrix(1.7104677,0,0,1.7104677,-34.10245,-35.812918)">
      <path
         d="M 48,20.9375 C 32.52292,20.9375 19.9375,33.52292 19.9375,49 19.9375,64.47708 32.52292,77.0625 48,77.0625 63.47708,77.0625 76.0625,64.47708 76.0625,49 76.0625,33.52292 63.47708,20.9375 48,20.9375 z m 0,13.40625 c 8.100926,0 14.65625,6.555324 14.65625,14.65625 0,1.242433 -0.233718,2.427913 -0.5625,3.59375 L 44.40625,34.90625 C 45.570712,34.577537 46.753976,34.34375 48,34.34375 z M 33.90625,46.0625 50.96875,63.09375 C 49.985496,63.324844 49.034038,63.65625 48,63.65625 39.899074,63.65625 33.34375,57.100926 33.34375,49 c 0,-1.026747 0.333257,-1.966048 0.5625,-2.9375 z"
         id="path3888"
         style="opacity:0.1;fill:#000000;fill-opacity:1;stroke:none"
         inkscape:original="M 48 22.09375 C 33.149557 22.09375 21.09375 34.149557 21.09375 49 C 21.09375 63.850443 33.149557 75.90625 48 75.90625 C 62.850443 75.90625 74.90625 63.850443 74.90625 49 C 74.90625 34.149557 62.850443 22.09375 48 22.09375 z M 48 33.1875 C 56.727546 33.1875 63.8125 40.272454 63.8125 49 C 63.8125 51.039988 63.336981 52.957273 62.625 54.75 L 42.25 34.375 C 44.042109 33.662116 45.955383 33.1875 48 33.1875 z M 33.1875 43.71875 L 53.3125 63.8125 C 51.646083 64.410787 49.874787 64.8125 48 64.8125 C 39.272454 64.8125 32.1875 57.727546 32.1875 49 C 32.1875 47.129825 32.589576 45.37857 33.1875 43.71875 z "
         inkscape:radius="1.1578459"
         sodipodi:type="inkscape:offset" />
      <path
         d="M 48,22.09375 C 33.149557,22.09375 21.09375,34.149557 21.09375,49 21.09375,63.850443 33.149557,75.90625 48,75.90625 62.850443,75.90625 74.90625,63.850443 74.90625,49 74.90625,34.149557 62.850443,22.09375 48,22.09375 z m 0,11.09375 c 8.727546,0 15.8125,7.084954 15.8125,15.8125 0,2.039988 -0.475519,3.957273 -1.1875,5.75 L 42.25,34.375 C 44.042109,33.662116 45.955383,33.1875 48,33.1875 z M 33.1875,43.71875 53.3125,63.8125 c -1.666417,0.598287 -3.437713,1 -5.3125,1 -8.727546,0 -15.8125,-7.084954 -15.8125,-15.8125 0,-1.870175 0.402076,-3.62143 1,-5.28125 z"
         id="path3884"
         style="opacity:0.15;fill:#000000;fill-opacity:1;stroke:none"
         inkscape:original="M 48 23 C 33.648 23 22 34.648 22 49 C 22 63.352 33.648 75 48 75 C 62.352 75 74 63.352 74 49 C 74 34.648 62.352 23 48 23 z M 48 32.28125 C 57.226286 32.28125 64.71875 39.773714 64.71875 49 C 64.71875 51.659479 64.07537 54.173344 62.96875 56.40625 L 40.59375 34.03125 C 42.82955 32.921033 45.33591 32.28125 48 32.28125 z M 32.8125 42.03125 L 55 64.1875 C 52.870912 65.171253 50.49808 65.71875 48 65.71875 C 38.773714 65.71875 31.28125 58.226286 31.28125 49 C 31.28125 46.506622 31.832231 44.157244 32.8125 42.03125 z "
         inkscape:radius="0.9212296"
         sodipodi:type="inkscape:offset" />
      <path
         inkscape:connector-curvature="0"
         style="opacity:0.3;fill:#000000;fill-opacity:1;stroke:none"
         d="M 48,75 C 62.352,75 74,63.352 74,49 74,34.648 62.352,23 48,23 33.648,23 22,34.648 22,49 22,63.352 33.648,75 48,75 z m 0,-9.285714 c -9.226286,0 -16.714282,-7.488 -16.714282,-16.714286 0,-2.493378 0.557674,-4.8528 1.537943,-6.978794 L 54.993302,64.176339 C 52.864214,65.160092 50.49808,65.714286 48,65.714286 z M 62.973214,56.399552 40.58594,34.026786 c 2.2358,-1.110217 4.74997,-1.741068 7.41406,-1.741068 9.226286,0 16.714286,7.487996 16.714286,16.714282 0,2.659479 -0.634452,5.166646 -1.741072,7.399552 z"
         id="path3878"
         inkscape:label="#path2424" />
      <path
         inkscape:label="#path2424"
         id="Symbol"
         d="M 48,74 C 62.352,74 74,62.352 74,48 74,33.648 62.352,22 48,22 33.648,22 22,33.648 22,48 22,62.352 33.648,74 48,74 z m 0,-9.285714 c -9.226286,0 -16.714282,-7.488 -16.714282,-16.714286 0,-2.493378 0.557674,-4.8528 1.537943,-6.978794 L 54.993302,63.176339 C 52.864214,64.160092 50.49808,64.714286 48,64.714286 z M 62.973214,55.399552 40.58594,33.026786 c 2.2358,-1.110217 4.74997,-1.741068 7.41406,-1.741068 9.226286,0 16.714286,7.487996 16.714286,16.714282 0,2.659479 -0.634452,5.166646 -1.741072,7.399552 z"
         style="fill:url(#linearGradient2945);fill-opacity:1;stroke:none"
         inkscape:connector-curvature="0" />
      <path
         id="path3860"
         d="m 48,22 c -14.352,0 -26,11.648 -26,26 0,0.166794 -0.0031,0.333951 0,0.5 C 22.266397,34.378107 33.814794,23 48,23 62.185206,23 73.733603,34.378107 74,48.5 74.003132,48.333951 74,48.166794 74,48 74,33.648 62.352,22 48,22 z m -6.71875,11.71875 c -0.230846,0.101995 -0.462177,0.200613 -0.6875,0.3125 l 22.375,22.375 c 1.10662,-2.232906 1.75,-4.746771 1.75,-7.40625 0,-0.12601 -0.02847,-0.249653 -0.03125,-0.375 -0.09052,2.428947 -0.698635,4.722892 -1.71875,6.78125 L 41.28125,33.71875 z M 31.3125,48.375 c -0.0077,0.205977 -0.03125,0.417103 -0.03125,0.625 0,9.226286 7.492464,16.71875 16.71875,16.71875 2.49808,0 4.870912,-0.547497 7,-1.53125 l -0.71875,-0.71875 c -1.943178,0.79293 -4.053731,1.25 -6.28125,1.25 -9.100276,0 -16.486814,-7.291365 -16.6875,-16.34375 z"
         style="opacity:0.3;fill:#ffffff;fill-opacity:1;stroke:none" />
      <path
         id="path3869"
         d="m 48,30.28125 c -2.66409,0 -5.17045,0.639783 -7.40625,1.75 l 0.6875,0.6875 c 2.059757,-0.910063 4.323146,-1.4375 6.71875,-1.4375 9.100276,0 16.486813,7.291365 16.6875,16.34375 C 64.6952,47.419026 64.71875,47.207893 64.71875,47 64.71875,37.773714 57.226286,30.28125 48,30.28125 z m -15.1875,9.75 C 31.832231,42.157244 31.28125,44.506622 31.28125,47 c 0,0.12601 0.02847,0.249653 0.03125,0.375 0.08438,-2.264371 0.601465,-4.39502 1.5,-6.34375 l 21.46875,21.4375 C 54.517274,62.372438 54.769403,62.294048 55,62.1875 L 32.8125,40.03125 z M 22,47.5 c -0.0031,0.166049 0,0.333206 0,0.5 0,14.352 11.648,26 26,26 14.352,0 26,-11.648 26,-26 0,-0.166794 0.0031,-0.333951 0,-0.5 C 73.733603,61.621893 62.185206,73 48,73 33.814794,73 22.266397,61.621893 22,47.5 z"
         style="opacity:0.15;fill:#000000;fill-opacity:1;stroke:none" />
    </g>
  </g>
</svg>
