<?xml version="1.0" encoding="UTF-8" standalone="no"?>
<!-- Created with Inkscape (http://www.inkscape.org/) -->

<svg
   xmlns:dc="http://purl.org/dc/elements/1.1/"
   xmlns:cc="http://creativecommons.org/ns#"
   xmlns:rdf="http://www.w3.org/1999/02/22-rdf-syntax-ns#"
   xmlns:svg="http://www.w3.org/2000/svg"
   xmlns="http://www.w3.org/2000/svg"
   xmlns:sodipodi="http://sodipodi.sourceforge.net/DTD/sodipodi-0.dtd"
   xmlns:inkscape="http://www.inkscape.org/namespaces/inkscape"
   id="svg2"
   version="1.1"
   inkscape:version="0.47 r22583"
   width="72"
   height="72"
   sodipodi:docname="tbx.svg">
  <metadata
     id="metadata8">
    <rdf:RDF>
      <cc:Work
         rdf:about="">
        <dc:format>image/svg+xml</dc:format>
        <dc:type
           rdf:resource="http://purl.org/dc/dcmitype/StillImage" />
        <dc:title></dc:title>
        <cc:license
           rdf:resource="http://creativecommons.org/licenses/by-sa/3.0/" />
        <dc:creator>
          <cc:Agent>
            <dc:title>Leandro Regueiro</dc:title>
          </cc:Agent>
        </dc:creator>
        <dc:date>November 2011</dc:date>
      </cc:Work>
      <cc:License
         rdf:about="http://creativecommons.org/licenses/by-sa/3.0/">
        <cc:permits
           rdf:resource="http://creativecommons.org/ns#Reproduction" />
        <cc:permits
           rdf:resource="http://creativecommons.org/ns#Distribution" />
        <cc:requires
           rdf:resource="http://creativecommons.org/ns#Notice" />
        <cc:requires
           rdf:resource="http://creativecommons.org/ns#Attribution" />
        <cc:permits
           rdf:resource="http://creativecommons.org/ns#DerivativeWorks" />
        <cc:requires
           rdf:resource="http://creativecommons.org/ns#ShareAlike" />
      </cc:License>
    </rdf:RDF>
  </metadata>
  <defs
     id="defs6">
    <inkscape:perspective
       sodipodi:type="inkscape:persp3d"
       inkscape:vp_x="0 : 36 : 1"
       inkscape:vp_y="0 : 1000 : 0"
       inkscape:vp_z="72 : 36 : 1"
       inkscape:persp3d-origin="36 : 24 : 1"
       id="perspective4527" />
  </defs>
  <sodipodi:namedview
     pagecolor="#ffffff"
     bordercolor="#666666"
     borderopacity="1"
     objecttolerance="10"
     gridtolerance="10"
     guidetolerance="10"
     inkscape:pageopacity="0"
     inkscape:pageshadow="2"
     inkscape:window-width="1366"
     inkscape:window-height="677"
     id="namedview4"
     showgrid="false"
     inkscape:zoom="2.8284271"
     inkscape:cx="-118.97145"
     inkscape:cy="21.185841"
     inkscape:window-x="0"
     inkscape:window-y="32"
     inkscape:window-maximized="1"
     inkscape:current-layer="svg2" />
  <rect
     style="color:#000000;fill:#ed1d24;fill-opacity:1;fill-rule:nonzero;stroke:none;stroke-width:0;marker:none;visibility:visible;display:inline;overflow:visible;enable-background:accumulate"
     id="rect2838"
     width="72"
     height="72"
     x="0"
     y="0" />
  <g
     id="g2853"
     transform="matrix(2,0,0,2,-80.5,0.5)">
    <path
       id="rect2820"
       d="m 41.5,3 0,4 5.5,0 0,14.75 4,0 0,-14.75 5.5,0 0,-4 -15,0 z"
       style="color:#000000;fill:#85d2dc;fill-opacity:1;fill-rule:nonzero;stroke:none;stroke-width:0;marker:none;visibility:visible;display:inline;overflow:visible;enable-background:accumulate" />
    <path
       style="color:#000000;fill:#fec429;fill-opacity:1;fill-rule:nonzero;stroke:none;stroke-width:0;marker:none;visibility:visible;display:inline;overflow:visible;enable-background:accumulate"
       d="m 59.5,3 0,18.75 10.5,0 c 2.761425,0 5,-2.397148 5,-5.34375 0,-2.046916 -1.10213,-3.792764 -2.6875,-4.6875 C 73.337503,10.803117 74,9.4825678 74,8 74,5.2385762 71.761425,2.9999999 69,3 l -9.5,0 z m 4,4 5,0 C 69.328427,7 70,7.6715729 70,8.5 70,9.3284271 69.328427,10 68.5,10 l -5,0 0,-3 z m 5,6.5 c 1.531158,0 2.5,1.338709 2.5,2.5 0,1.429282 -1.418445,2 -2.5,2 l -5,0 0,-4.5 5,0 z"
       id="path2849"
       sodipodi:nodetypes="cccscsccccsscccscccc" />
    <path
       id="rect2820-8-5"
       d="m 51.09375,13.5 5.875,9.03125 L 50.5,32.5 l 5.9375,0 3.5,-5.375 3.5,5.375 5.9375,0 -6.46875,-9.96875 5.875,-9.03125 -5.9375,0 -2.90625,4.46875 -2.90625,-4.46875 -5.9375,0 z"
       style="color:#000000;fill:#2c419b;fill-opacity:1;fill-rule:nonzero;stroke:none;stroke-width:0;marker:none;visibility:visible;display:inline;overflow:visible;enable-background:accumulate" />
  </g>
</svg>
