<?xml version="1.0" encoding="UTF-8" standalone="no"?>
<!-- Created with Inkscape (http://www.inkscape.org/) -->

<svg
   xmlns:dc="http://purl.org/dc/elements/1.1/"
   xmlns:cc="http://creativecommons.org/ns#"
   xmlns:rdf="http://www.w3.org/1999/02/22-rdf-syntax-ns#"
   xmlns:svg="http://www.w3.org/2000/svg"
   xmlns="http://www.w3.org/2000/svg"
   xmlns:xlink="http://www.w3.org/1999/xlink"
   xmlns:sodipodi="http://sodipodi.sourceforge.net/DTD/sodipodi-0.dtd"
   xmlns:inkscape="http://www.inkscape.org/namespaces/inkscape"
   width="96"
   height="96"
   id="svg2408"
   sodipodi:version="0.32"
   inkscape:version="0.47 r22583"
   version="1.0"
   sodipodi:docname="icon_import.svg"
   inkscape:output_extension="org.inkscape.output.svg.inkscape"
   inkscape:export-filename="/home/leo/Escritorio/avanzando_PFC/project/terminator/static/images/glossary_32.png"
   inkscape:export-xdpi="30"
   inkscape:export-ydpi="30"
   style="display:inline">
  <defs
     id="defs2410">
    <linearGradient
       inkscape:collect="always"
       id="linearGradient3737">
      <stop
         style="stop-color:#ffffff;stop-opacity:1;"
         offset="0"
         id="stop3739" />
      <stop
         style="stop-color:#ffffff;stop-opacity:0;"
         offset="1"
         id="stop3741" />
    </linearGradient>
    <filter
       inkscape:collect="always"
       id="filter3794"
       x="-0.192"
       width="1.3839999"
       y="-0.192"
       height="1.3839999"
       color-interpolation-filters="sRGB">
      <feGaussianBlur
         inkscape:collect="always"
         stdDeviation="5.28"
         id="feGaussianBlur3796" />
    </filter>
    <linearGradient
       inkscape:collect="always"
       xlink:href="#linearGradient3737"
       id="linearGradient3613"
       x1="48"
       y1="20.220806"
       x2="48"
       y2="138.66119"
       gradientUnits="userSpaceOnUse" />
    <clipPath
       clipPathUnits="userSpaceOnUse"
       id="clipPath3613">
      <rect
         ry="6"
         rx="6"
         y="6"
         x="6"
         height="84"
         width="84"
         id="rect3615"
         style="fill:#ffffff;fill-opacity:1;fill-rule:nonzero;stroke:none" />
    </clipPath>
    <linearGradient
       id="ButtonColor"
       x1="58.650177"
       y1="122"
       x2="58.650177"
       y2="5.4252338"
       gradientUnits="userSpaceOnUse"
       gradientTransform="matrix(1.0172414,0,0,1.0172414,-1.1034483,-1.1034483)">
      <stop
         style="stop-color:#cda060;stop-opacity:1;"
         offset="0"
         id="stop3189" />
      <stop
         style="stop-color:#dbbb8e;stop-opacity:1;"
         offset="1"
         id="stop3191" />
    </linearGradient>
    <linearGradient
       inkscape:collect="always"
       id="linearGradient3294">
      <stop
         style="stop-color:#72401f;stop-opacity:1;"
         offset="0"
         id="stop3296" />
      <stop
         style="stop-color:#72401f;stop-opacity:0;"
         offset="1"
         id="stop3298" />
    </linearGradient>
    <linearGradient
       inkscape:collect="always"
       id="linearGradient3238">
      <stop
         style="stop-color:#784421;stop-opacity:1;"
         offset="0"
         id="stop3240" />
      <stop
         style="stop-color:#784421;stop-opacity:0;"
         offset="1"
         id="stop3242" />
    </linearGradient>
    <linearGradient
       inkscape:collect="always"
       id="linearGradient3250">
      <stop
         style="stop-color:#c4875e;stop-opacity:1;"
         offset="0"
         id="stop3252" />
      <stop
         style="stop-color:#c4875e;stop-opacity:0;"
         offset="1"
         id="stop3254" />
    </linearGradient>
    <linearGradient
       inkscape:collect="always"
       xlink:href="#ButtonColor"
       id="linearGradient2947"
       gradientUnits="userSpaceOnUse"
       x1="48"
       y1="90"
       x2="48"
       y2="5.9877172" />
    <linearGradient
       inkscape:collect="always"
       xlink:href="#linearGradient3238"
       id="linearGradient2949"
       gradientUnits="userSpaceOnUse"
       gradientTransform="matrix(1.125,0,0,1,0.375,-4.0000007)"
       x1="5"
       y1="28"
       x2="21"
       y2="28" />
    <linearGradient
       inkscape:collect="always"
       xlink:href="#linearGradient3250"
       id="linearGradient2951"
       gradientUnits="userSpaceOnUse"
       gradientTransform="matrix(1.125,0,0,1,0.375,-9.9999997)"
       x1="5"
       y1="27"
       x2="21"
       y2="27" />
    <radialGradient
       inkscape:collect="always"
       xlink:href="#linearGradient3737"
       id="radialGradient2953"
       gradientUnits="userSpaceOnUse"
       gradientTransform="matrix(1.1573129,0,0,0.99590774,-7.5510206,0.19713193)"
       cx="48"
       cy="90.171875"
       fx="48"
       fy="90.171875"
       r="42" />
    <linearGradient
       inkscape:collect="always"
       xlink:href="#linearGradient3238"
       id="linearGradient2955"
       gradientUnits="userSpaceOnUse"
       gradientTransform="matrix(1.125,0,0,1,0.375,-4.0000007)"
       x1="5"
       y1="28"
       x2="21"
       y2="28" />
    <linearGradient
       inkscape:collect="always"
       xlink:href="#linearGradient3250"
       id="linearGradient2957"
       gradientUnits="userSpaceOnUse"
       gradientTransform="matrix(1.125,0,0,1,0.375,-9.9999997)"
       x1="5"
       y1="27"
       x2="21"
       y2="27" />
    <linearGradient
       inkscape:collect="always"
       xlink:href="#linearGradient3238"
       id="linearGradient2959"
       gradientUnits="userSpaceOnUse"
       gradientTransform="matrix(1.125,0,0,1,0.375,-4.0000007)"
       x1="5"
       y1="28"
       x2="21"
       y2="28" />
    <linearGradient
       inkscape:collect="always"
       xlink:href="#linearGradient3250"
       id="linearGradient2961"
       gradientUnits="userSpaceOnUse"
       gradientTransform="matrix(1.125,0,0,1,0.375,-9.9999997)"
       x1="5"
       y1="27"
       x2="21"
       y2="27" />
    <linearGradient
       inkscape:collect="always"
       xlink:href="#linearGradient3238"
       id="linearGradient2963"
       gradientUnits="userSpaceOnUse"
       gradientTransform="matrix(1.125,0,0,1,0.375,-4.0000007)"
       x1="5"
       y1="28"
       x2="21"
       y2="28" />
    <linearGradient
       inkscape:collect="always"
       xlink:href="#linearGradient3250"
       id="linearGradient2965"
       gradientUnits="userSpaceOnUse"
       gradientTransform="matrix(1.125,0,0,1,0.375,-9.9999997)"
       x1="5"
       y1="27"
       x2="21"
       y2="27" />
    <linearGradient
       inkscape:collect="always"
       xlink:href="#linearGradient3294"
       id="linearGradient2967"
       gradientUnits="userSpaceOnUse"
       gradientTransform="translate(1,-15.321429)"
       x1="5"
       y1="64"
       x2="11.227473"
       y2="64" />
    <linearGradient
       inkscape:collect="always"
       xlink:href="#linearGradient3737"
       id="linearGradient2970"
       gradientUnits="userSpaceOnUse"
       x1="36.357143"
       y1="6"
       x2="36.357143"
       y2="63.893143" />
    <filter
       inkscape:collect="always"
       id="filter4001"
       color-interpolation-filters="sRGB">
      <feGaussianBlur
         inkscape:collect="always"
         stdDeviation="2.2890652"
         id="feGaussianBlur4003" />
    </filter>
    <radialGradient
       inkscape:collect="always"
       xlink:href="#linearGradient3737-0"
       id="radialGradient3619-5"
       cx="48"
       cy="90.171875"
       fx="48"
       fy="90.171875"
       r="42"
       gradientTransform="matrix(1.1573129,0,0,0.99590774,-3.1254184,-123.7543)"
       gradientUnits="userSpaceOnUse" />
    <linearGradient
       inkscape:collect="always"
       id="linearGradient3737-0">
      <stop
         style="stop-color:#ffffff;stop-opacity:1;"
         offset="0"
         id="stop3739-0" />
      <stop
         style="stop-color:#ffffff;stop-opacity:0;"
         offset="1"
         id="stop3741-7" />
    </linearGradient>
    <linearGradient
       gradientTransform="translate(4.4256026,-123.95143)"
       inkscape:collect="always"
       xlink:href="#linearGradient3737-0"
       id="linearGradient3188-0"
       gradientUnits="userSpaceOnUse"
       x1="36.357143"
       y1="6"
       x2="36.357143"
       y2="63.893143" />
    <filter
       inkscape:collect="always"
       id="filter5438"
       x="-0.10015387"
       width="1.2003077"
       y="-0.07233332"
       height="1.1446666">
      <feGaussianBlur
         inkscape:collect="always"
         stdDeviation="1.0849999"
         id="feGaussianBlur5440" />
    </filter>
    <linearGradient
       id="linearGradient3700">
      <stop
         id="stop3702"
         offset="0"
         style="stop-color:#2276c5;stop-opacity:1;" />
      <stop
         id="stop3704"
         offset="1"
         style="stop-color:#68baf4;stop-opacity:1;" />
    </linearGradient>
    <linearGradient
       inkscape:collect="always"
       xlink:href="#linearGradient3700"
       id="linearGradient6235"
       gradientUnits="userSpaceOnUse"
       gradientTransform="matrix(1,0,0,-1,55.603996,108.896)"
       x1="71.104477"
       y1="13.641673"
       x2="71.283585"
       y2="49.821011" />
  </defs>
  <sodipodi:namedview
     id="base"
     pagecolor="#ffffff"
     bordercolor="#666666"
     borderopacity="1.0"
     inkscape:pageopacity="0.0"
     inkscape:pageshadow="2"
     inkscape:zoom="4.7083333"
     inkscape:cx="48"
     inkscape:cy="42.190493"
     inkscape:document-units="px"
     inkscape:current-layer="layer5"
     showgrid="false"
     showborder="true"
     inkscape:showpageshadow="false"
     inkscape:window-width="1366"
     inkscape:window-height="677"
     inkscape:window-x="0"
     inkscape:window-y="32"
     inkscape:window-maximized="1"
     inkscape:snap-global="false">
    <inkscape:grid
       type="xygrid"
       id="grid3732"
       visible="true"
       enabled="true" />
  </sodipodi:namedview>
  <metadata
     id="metadata2413">
    <rdf:RDF>
      <cc:Work
         rdf:about="">
        <dc:format>image/svg+xml</dc:format>
        <dc:type
           rdf:resource="http://purl.org/dc/dcmitype/StillImage" />
        <dc:title />
      </cc:Work>
    </rdf:RDF>
  </metadata>
  <g
     inkscape:groupmode="layer"
     id="layer3"
     inkscape:label="Shadow"
     style="display:inline">
    <rect
       style="opacity:0.45;fill:#000000;fill-opacity:1;fill-rule:nonzero;stroke:none;display:inline;filter:url(#filter4001)"
       id="rect2979"
       width="92.0625"
       height="91.0625"
       x="1.96875"
       y="-94.53125"
       rx="6.5758929"
       ry="6.5044641"
       transform="matrix(0.95981572,0,0,-0.95941329,1.8833565,2.5346796)" />
  </g>
  <g
     inkscape:label="Button"
     inkscape:groupmode="layer"
     id="layer1"
     style="display:inline">
    <g
       id="g2923">
      <rect
         ry="6"
         rx="6"
         y="6"
         x="6"
         height="84"
         width="84"
         id="rect2419"
         style="fill:url(#linearGradient2947);fill-opacity:1;fill-rule:nonzero;stroke:none" />
      <path
         id="rect3170"
         d="M 12,6 C 8.676,6 6,8.676 6,12 l 0,72 c 0,3.324 2.676,6 6,6 L 24,90 24,6 12,6 z"
         style="fill:#a05a2c;fill-opacity:1;fill-rule:nonzero;stroke:none;display:inline" />
      <g
         transform="translate(0,2)"
         id="g3903">
        <rect
           style="fill:url(#linearGradient2949);fill-opacity:1;fill-rule:nonzero;stroke:none"
           id="rect3236"
           width="18"
           height="2"
           x="6"
           y="20" />
        <rect
           y="16"
           x="6"
           height="2"
           width="18"
           id="rect3246"
           style="fill:url(#linearGradient2951);fill-opacity:1;fill-rule:nonzero;stroke:none" />
      </g>
      <path
         style="opacity:0.2;fill:url(#radialGradient2953);fill-opacity:1;fill-rule:nonzero;stroke:none"
         d="M 12,90 C 8.676,90 6,87.324 6,84 L 6,82 6,14 6,12 c 0,-0.334721 0.04135,-0.6507 0.09375,-0.96875 0.0487,-0.295596 0.09704,-0.596915 0.1875,-0.875 C 6.29113,10.12587 6.302142,10.09265 6.3125,10.0625 6.411365,9.774729 6.5473802,9.515048 6.6875,9.25 6.8320918,8.976493 7.0031161,8.714385 7.1875,8.46875 7.3718839,8.223115 7.5612765,7.995278 7.78125,7.78125 8.221197,7.353194 8.72416,6.966724 9.28125,6.6875 9.559795,6.547888 9.8547231,6.440553 10.15625,6.34375 9.9000482,6.443972 9.6695391,6.580022 9.4375,6.71875 c -0.00741,0.0044 -0.023866,-0.0045 -0.03125,0 -0.031933,0.0193 -0.062293,0.04251 -0.09375,0.0625 -0.120395,0.0767 -0.2310226,0.163513 -0.34375,0.25 -0.1061728,0.0808 -0.2132809,0.161112 -0.3125,0.25 C 8.4783201,7.442683 8.3087904,7.626638 8.15625,7.8125 8.0486711,7.942755 7.9378561,8.077785 7.84375,8.21875 7.818661,8.25713 7.805304,8.30462 7.78125,8.34375 7.716487,8.446782 7.6510225,8.548267 7.59375,8.65625 7.4927417,8.850956 7.3880752,9.071951 7.3125,9.28125 7.30454,9.30306 7.288911,9.3218 7.28125,9.34375 7.2494249,9.4357 7.2454455,9.530581 7.21875,9.625 7.1884177,9.731618 7.1483606,9.828031 7.125,9.9375 7.0521214,10.279012 7,10.635705 7,11 l 0,2 0,68 0,2 c 0,2.781848 2.2181517,5 5,5 l 2,0 68,0 2,0 c 2.781848,0 5,-2.218152 5,-5 l 0,-2 0,-68 0,-2 C 89,10.635705 88.94788,10.279012 88.875,9.9375 88.83085,9.730607 88.78662,9.539842 88.71875,9.34375 88.71105,9.3218 88.69545,9.30306 88.6875,9.28125 88.62476,9.107511 88.549117,8.913801 88.46875,8.75 88.42717,8.6672 88.38971,8.580046 88.34375,8.5 88.28915,8.40279 88.216976,8.31165 88.15625,8.21875 88.06214,8.077785 87.951329,7.942755 87.84375,7.8125 87.700576,7.63805 87.540609,7.465502 87.375,7.3125 87.36383,7.3023 87.35502,7.29135 87.34375,7.28125 87.205364,7.155694 87.058659,7.046814 86.90625,6.9375 86.803679,6.86435 86.701932,6.784136 86.59375,6.71875 c -0.0074,-0.0045 -0.02384,0.0044 -0.03125,0 -0.232039,-0.138728 -0.462548,-0.274778 -0.71875,-0.375 0.301527,0.0968 0.596455,0.204138 0.875,0.34375 0.55709,0.279224 1.060053,0.665694 1.5,1.09375 0.219973,0.214028 0.409366,0.441865 0.59375,0.6875 0.184384,0.245635 0.355408,0.507743 0.5,0.78125 0.14012,0.265048 0.276135,0.524729 0.375,0.8125 0.01041,0.03078 0.02133,0.06274 0.03125,0.09375 0.09046,0.278085 0.1388,0.579404 0.1875,0.875 C 89.95865,11.3493 90,11.665279 90,12 l 0,2 0,68 0,2 c 0,3.324 -2.676,6 -6,6 l -72,0 z"
         id="path3615" />
      <g
         transform="translate(0,20)"
         id="g3907">
        <rect
           y="20"
           x="6"
           height="2"
           width="18"
           id="rect3909"
           style="fill:url(#linearGradient2955);fill-opacity:1;fill-rule:nonzero;stroke:none" />
        <rect
           style="fill:url(#linearGradient2957);fill-opacity:1;fill-rule:nonzero;stroke:none"
           id="rect3911"
           width="18"
           height="2"
           x="6"
           y="16" />
      </g>
      <g
         id="g3917"
         transform="translate(0,56)">
        <rect
           style="fill:url(#linearGradient2959);fill-opacity:1;fill-rule:nonzero;stroke:none"
           id="rect3919"
           width="18"
           height="2"
           x="6"
           y="20" />
        <rect
           y="16"
           x="6"
           height="2"
           width="18"
           id="rect3921"
           style="fill:url(#linearGradient2961);fill-opacity:1;fill-rule:nonzero;stroke:none" />
      </g>
      <g
         transform="translate(0,38)"
         id="g3927">
        <rect
           y="20"
           x="6"
           height="2"
           width="18"
           id="rect3929"
           style="fill:url(#linearGradient2963);fill-opacity:1;fill-rule:nonzero;stroke:none" />
        <rect
           style="fill:url(#linearGradient2965);fill-opacity:1;fill-rule:nonzero;stroke:none"
           id="rect3931"
           width="18"
           height="2"
           x="6"
           y="16" />
      </g>
      <path
         id="path3292"
         d="M 12,6 C 8.676,6 6,8.676 6,12 l 0,72 c 0,3.324 2.676,6 6,6 l 9.125,0 0,-84 L 12,6 z"
         style="fill:url(#linearGradient2967);fill-opacity:1;fill-rule:nonzero;stroke:none;display:inline" />
      <path
         id="rect3728"
         d="M 12,6 C 8.676,6 6,8.676 6,12 l 0,2 0,68 0,2 c 0,0.334721 0.04135,0.6507 0.09375,0.96875 0.0487,0.295596 0.09704,0.596915 0.1875,0.875 0.00988,0.03038 0.020892,0.0636 0.03125,0.09375 0.098865,0.287771 0.2348802,0.547452 0.375,0.8125 0.1445918,0.273507 0.3156161,0.535615 0.5,0.78125 0.1843839,0.245635 0.3737765,0.473472 0.59375,0.6875 0.439947,0.428056 0.94291,0.814526 1.5,1.09375 0.278545,0.139612 0.5734731,0.246947 0.875,0.34375 -0.2562018,-0.100222 -0.4867109,-0.236272 -0.71875,-0.375 -0.00741,-0.0044 -0.023866,0.0045 -0.03125,0 -0.031933,-0.0193 -0.062293,-0.04251 -0.09375,-0.0625 -0.120395,-0.0767 -0.2310226,-0.163513 -0.34375,-0.25 -0.1061728,-0.0808 -0.2132809,-0.161112 -0.3125,-0.25 C 8.4783201,88.557317 8.3087904,88.373362 8.15625,88.1875 8.0486711,88.057245 7.9378561,87.922215 7.84375,87.78125 7.818661,87.74287 7.805304,87.69538 7.78125,87.65625 7.716487,87.553218 7.6510225,87.451733 7.59375,87.34375 7.4927417,87.149044 7.3880752,86.928049 7.3125,86.71875 7.30454,86.69694 7.288911,86.6782 7.28125,86.65625 7.2494249,86.5643 7.2454455,86.469419 7.21875,86.375 7.1884177,86.268382 7.1483606,86.171969 7.125,86.0625 7.0521214,85.720988 7,85.364295 7,85 L 7,83 7,15 7,13 C 7,10.218152 9.2181517,8 12,8 l 2,0 68,0 2,0 c 2.781848,0 5,2.218152 5,5 l 0,2 0,68 0,2 c 0,0.364295 -0.05212,0.720988 -0.125,1.0625 -0.04415,0.206893 -0.08838,0.397658 -0.15625,0.59375 -0.0077,0.02195 -0.0233,0.04069 -0.03125,0.0625 -0.06274,0.173739 -0.138383,0.367449 -0.21875,0.53125 -0.04158,0.0828 -0.07904,0.169954 -0.125,0.25 -0.0546,0.09721 -0.126774,0.18835 -0.1875,0.28125 -0.09411,0.140965 -0.204921,0.275995 -0.3125,0.40625 -0.143174,0.17445 -0.303141,0.346998 -0.46875,0.5 -0.01117,0.0102 -0.01998,0.02115 -0.03125,0.03125 -0.138386,0.125556 -0.285091,0.234436 -0.4375,0.34375 -0.102571,0.07315 -0.204318,0.153364 -0.3125,0.21875 -0.0074,0.0045 -0.02384,-0.0044 -0.03125,0 -0.232039,0.138728 -0.462548,0.274778 -0.71875,0.375 0.301527,-0.0968 0.596455,-0.204138 0.875,-0.34375 0.55709,-0.279224 1.060053,-0.665694 1.5,-1.09375 0.219973,-0.214028 0.409366,-0.441865 0.59375,-0.6875 0.184384,-0.245635 0.355408,-0.507743 0.5,-0.78125 0.14012,-0.265048 0.276135,-0.524729 0.375,-0.8125 0.01041,-0.03078 0.02133,-0.06274 0.03125,-0.09375 0.09046,-0.278085 0.1388,-0.579404 0.1875,-0.875 C 89.95865,84.6507 90,84.334721 90,84 l 0,-2 0,-68 0,-2 C 90,8.676 87.324,6 84,6 L 12,6 z"
         style="opacity:0.4;fill:url(#linearGradient2970);fill-opacity:1;fill-rule:nonzero;stroke:none" />
      <rect
         y="6"
         x="24"
         height="84"
         width="1"
         id="rect3941"
         style="opacity:0.1;fill:#ffffff;fill-opacity:1;stroke:none" />
      <rect
         style="opacity:0.1;fill:#000000;fill-opacity:1;stroke:none"
         id="rect3943"
         width="1"
         height="84"
         x="23"
         y="6" />
      <path
         sodipodi:nodetypes="cccccccccccccccccccccccccccccccccccccccccccccccccccccccccccccccccccccccccccccccccccccccccccccccccccccccccccccccccccccccccccccccccccccccccccccccccccccccccccccccccccccccccccccccccccccccccccccccccccccccccccccccccccccccccccccccccccccccccccccccccccccccccccccccccccccccccccccccccccccccccccccccccccccccccccccccccccccccccccccccccccccccccccccccccccccc"
         id="path3189"
         d="m 28,10 0,0.498361 0,5.201639 0,0.498361 0.49948,0 4.557752,0 0,4.142623 -1.498439,0 0,-2.118033 0,-0.498361 -0.49948,0 -2.559833,0 -0.49948,0 0,0.498361 0,2.616393 0,0.498361 0.49948,0 2.060354,0 0,53.32459 -2.060354,0 -0.49948,0 0,0.498361 0,2.647541 0,0.49836 0.49948,0 2.559833,0 0.49948,0 0,-0.49836 0,-2.149181 1.498439,0 0,4.142623 -4.557752,0 -0.49948,0 L 28,80.3 28,85.501639 28,86 l 0.49948,0 5.057232,0 0.499479,0 0,-0.498361 0,-4.703278 4.245578,0 0,1.650819 -2.154006,0 -0.49948,0 0,0.498361 0,2.554098 0,0.498361 0.49948,0 2.653486,0 0.499479,0 0,-0.498361 0,-2.055737 35.398544,0 0,2.055737 0,0.498361 0.499479,0 2.684704,0 0.499479,0 0,-0.498361 0,-2.554098 0,-0.498361 -0.499479,0 -2.185224,0 0,-1.650819 4.245578,0 0,4.703278 0,0.498361 0.499479,0 5.057232,0 L 86,86 86,85.501639 86,80.3 l 0,-0.498361 -0.49948,0 -4.557752,0 0,-4.142623 1.529657,0 0,2.149181 0,0.49836 0.499479,0 2.528616,0 0.49948,0 0,-0.49836 0,-2.647541 0,-0.498361 -0.49948,0 -2.029136,0 0,-53.32459 2.029136,0 0.49948,0 0,-0.498361 0,-2.616393 0,-0.498361 -0.49948,0 -2.528616,0 -0.499479,0 0,0.498361 0,2.118033 -1.529657,0 0,-4.142623 4.557752,0 0.49948,0 L 86,15.7 86,10.498361 86,10 l -0.49948,0 -5.057232,0 -0.499479,0 0,0.498361 0,4.703278 -4.245578,0 0,-1.650819 2.185224,0 0.499479,0 0,-0.467213 0,-2.585246 0,-0.498361 -0.499479,0 -2.684704,0 -0.499479,0 0,0.498361 0,2.086885 -35.398544,0 0,-2.086885 0,-0.498361 -0.499479,0 -2.653486,0 -0.49948,0 0,0.498361 0,2.585246 0,0.467213 0.49948,0 2.154006,0 0,1.650819 -4.245578,0 0,-4.703278 0,-0.498361 -0.499479,0 L 28.49948,10 28,10 z m 0.998959,0.996721 4.058273,0 0,4.204918 -4.058273,0 0,-4.204918 z m 7.648283,0 1.654527,0 0,1.588525 -1.654527,0 0,-1.588525 z m 39.050989,0 1.685744,0 0,1.588525 -1.685744,0 0,-1.588525 z m 5.244537,0 4.058273,0 0,4.204918 -4.058273,0 0,-4.204918 z m -41.64204,2.554099 35.398544,0 0,1.650819 -2.091572,0 -0.499479,0 0,0.498361 0,2.585246 0,0.467213 0.499479,0 2.591051,0 0.49948,0 0,-0.467213 0,-2.086885 4.245578,0 0,4.142623 -2.154007,0 -0.499479,0 0,0.49836 0,2.585246 0,0.467213 0.499479,0 2.653486,0 0.49948,0 0,-0.467213 0,-2.086885 1.529657,0 0,53.32459 -1.529657,0 0,-2.055738 0,-0.49836 -0.49948,0 -2.653486,0 -0.499479,0 0,0.49836 0,2.554099 0,0.49836 0.499479,0 2.154007,0 0,4.142623 -4.245578,0 0,-2.055737 0,-0.498361 -0.49948,0 -2.591051,0 -0.499479,0 0,0.498361 0,2.554098 0,0.498361 0.499479,0 2.091572,0 0,1.650819 -35.398544,0 0,-1.650819 2.122789,0 0.49948,0 0,-0.498361 0,-2.554098 0,-0.498361 -0.49948,0 -2.622268,0 -0.49948,0 0,0.498361 0,2.055737 -4.245578,0 0,-4.142623 2.185224,0 0.49948,0 0,-0.49836 0,-2.554099 0,-0.49836 -0.49948,0 -2.684703,0 -0.49948,0 0,0.49836 0,2.055738 -1.498439,0 0,-53.32459 1.498439,0 0,2.086885 0,0.467213 0.49948,0 2.684703,0 0.49948,0 0,-0.467213 0,-2.585246 0,-0.49836 -0.49948,0 -2.185224,0 0,-4.142623 4.245578,0 0,2.086885 0,0.467213 0.49948,0 2.622268,0 0.49948,0 0,-0.467213 0,-2.585246 0,-0.498361 -0.49948,0 -2.122789,0 0,-1.650819 z m 0,2.647541 1.623309,0 0,1.588524 -1.623309,0 0,-1.588524 z m 33.806452,0 1.592092,0 0,1.588524 -1.592092,0 0,-1.588524 z m -44.108221,2.491803 1.560875,0 0,1.65082 -1.560875,0 0,-1.65082 z m 54.472425,0 1.529657,0 0,1.65082 -1.529657,0 0,-1.65082 z m -49.415193,2.647541 1.685744,0 0,1.588525 -1.685744,0 0,-1.588525 z m 44.233091,0 1.654527,0 0,1.588525 -1.654527,0 0,-1.588525 z m -44.233091,51.767213 1.685744,0 0,1.557377 -1.685744,0 0,-1.557377 z m 44.233091,0 1.654527,0 0,1.557377 -1.654527,0 0,-1.557377 z m -49.290323,2.554098 1.560875,0 0,1.65082 -1.560875,0 0,-1.65082 z m 54.472425,0 1.529657,0 0,1.65082 -1.529657,0 0,-1.65082 z m -44.170656,2.585246 1.623309,0 0,1.557377 -1.623309,0 0,-1.557377 z m 33.806452,0 1.592092,0 0,1.557377 -1.592092,0 0,-1.557377 z m -44.108221,2.554099 4.058273,0 0,4.204918 -4.058273,0 0,-4.204918 z m 51.943809,0 4.058273,0 0,4.204918 -4.058273,0 0,-4.204918 z m -44.295526,2.647541 1.654527,0 0,1.557377 -1.654527,0 0,-1.557377 z m 39.050989,0 1.685744,0 0,1.557377 -1.685744,0 0,-1.557377 z"
         style="opacity:0.55870445;fill:#784421;fill-opacity:1;fill-rule:evenodd;stroke:none;display:inline" />
      <path
         id="text3202"
         d="m 45.605903,29.720536 -1.016793,0 -5.568154,14.11406 c -0.484187,1.258885 -0.581026,1.428353 -0.944166,1.815702 -0.38735,0.459978 -1.065213,0.75049 -1.718865,0.75049 l -0.09684,0 0,1.137841 6.415481,0 0,-1.137841 -0.484187,0 c -1.307304,0 -1.960959,-0.459978 -1.960959,-1.379934 0,-0.290512 0.07263,-0.629444 0.217884,-1.016792 l 0.79891,-2.130425 6.415481,0 1.307306,3.244055 c 0.145256,0.36314 0.193674,0.532606 0.193674,0.653653 0,0.387349 -0.605234,0.629443 -1.50098,0.629443 l -1.016793,0 0,1.137841 7.504904,0 0,-1.137841 -0.338933,0 c -1.210466,0 -1.47677,-0.193676 -2.033585,-1.549399 L 45.605903,29.720536 m -1.186259,3.970335 2.735658,6.87546 -5.422898,0 2.68724,-6.87546 m 13.887855,-3.994546 -4.164011,0.266304 0,1.041002 0.847327,0 c 0.895746,0 1.041003,0.169468 1.041003,1.210469 l 0,9.417444 c 0,3.244051 -0.121047,4.817664 -0.435769,6.246016 l 0.919956,0 1.186257,-1.888331 c 0.992584,1.307304 2.130427,1.91254 3.631406,1.91254 2.977749,0 5.205014,-2.590405 5.205014,-6.076551 0,-3.486145 -2.03359,-5.931294 -4.93871,-5.931294 -1.476771,0 -2.372519,0.508398 -3.292474,1.88833 l 0,-8.085929 m 2.856705,7.432276 c 1.815701,0 2.832496,1.767287 2.832496,4.938711 0,3.050377 -0.992586,4.793454 -2.759868,4.793454 -1.912538,0 -3.05038,-1.767287 -3.05038,-4.745035 0,-3.219843 1.041004,-4.98713 2.977752,-4.98713 m 15.630545,6.851251 c -0.774697,1.743072 -1.597817,2.445146 -2.8567,2.445146 -1.936749,0 -3.147219,-1.767287 -3.147219,-4.59978 0,-2.92933 1.186261,-4.890292 2.977755,-4.890292 0.726276,0 1.35572,0.338933 1.35572,0.726281 0,0.07263 -0.0484,0.145257 -0.145258,0.290513 -0.387343,0.459977 -0.484185,0.702072 -0.484185,1.11363 0,0.798909 0.605239,1.355725 1.452563,1.355725 0.847324,0 1.476769,-0.677863 1.476769,-1.646237 0,-1.622026 -1.622028,-2.880914 -3.776657,-2.880914 -3.147216,0 -5.39869,2.590405 -5.39869,6.197597 0,3.437726 2.0578,5.810248 5.059758,5.810248 2.154635,0 3.389308,-0.992587 4.430312,-3.558777 l -0.944167,-0.36314"
         style="font-size:36px;font-style:normal;font-variant:normal;font-weight:normal;font-stretch:normal;text-align:start;line-height:100%;writing-mode:lr-tb;text-anchor:start;fill:#784421;fill-opacity:1;stroke:none;display:inline;font-family:Century Schoolbook L;-inkscape-font-specification:Century Schoolbook L" />
      <path
         id="text3210"
         d="m 44.30695,51.399599 -0.134406,0 -0.137943,0.215757 c -0.229906,-0.183924 -0.385534,-0.244053 -0.643735,-0.244053 -0.279423,0 -0.498717,0.07782 -0.721548,0.258202 -0.350163,0.282959 -0.512866,0.640197 -0.512866,1.117691 0,0.360775 0.106111,0.66142 0.311256,0.891325 0.219294,0.24759 0.544698,0.392607 0.884251,0.392607 0.297108,0 0.505791,-0.09196 0.735695,-0.321867 l 0.13087,0.31833 0.148554,0 0,-0.77814 c 0,-0.190997 0,-0.194536 0.02123,-0.219295 0.03184,-0.03537 0.106111,-0.04952 0.297109,-0.04952 l 0.05305,0 0,-0.166239 -1.124766,0 0,0.166239 0.0672,0 c 0.297108,0 0.321868,0.01769 0.321868,0.21222 0,0.152092 -0.0283,0.293572 -0.07074,0.378459 -0.08843,0.173313 -0.314793,0.293572 -0.544697,0.293572 -0.226369,0 -0.456274,-0.116721 -0.576532,-0.293572 -0.130869,-0.194534 -0.187461,-0.445662 -0.187461,-0.824121 0,-0.78875 0.261739,-1.209655 0.753381,-1.209655 0.403217,0 0.682642,0.290035 0.827658,0.855955 l 0.152091,0 -0.04952,-0.993897 m 1.157815,0.930231 -0.611901,0.0389 0,0.152091 0.127333,0 c 0.130868,0 0.15209,0.02476 0.15209,0.176851 l 0,0.845343 0,0.14148 c 0,0.14148 -0.0389,0.166239 -0.265274,0.166239 l -0.01415,0 0,0.127332 0.894861,0 0,-0.127332 -0.01415,0 c -0.229904,0 -0.268812,-0.02476 -0.268812,-0.166239 l 0,-0.14148 0,-0.367849 c 0,-0.173312 0.02476,-0.332478 0.06367,-0.413829 0.07428,-0.159164 0.233442,-0.268812 0.385533,-0.268812 0.09196,0 0.198073,0.05305 0.251127,0.123795 0.05305,0.07428 0.07782,0.183925 0.07782,0.3537 l 0,0.572995 0,0.14148 c 0,0.14148 -0.0389,0.166239 -0.268813,0.166239 l -0.01415,0 0,0.127332 0.894862,0 0,-0.127332 -0.01415,0 c -0.226367,0 -0.265274,-0.02476 -0.265274,-0.166239 l 0,-0.14148 0,-0.555309 c 0,-0.254664 -0.01061,-0.318331 -0.07428,-0.438589 -0.08843,-0.169776 -0.268811,-0.272349 -0.477495,-0.272349 -0.226365,0 -0.403218,0.106111 -0.558846,0.339552 l 0,-0.286497 m 2.346193,-0.05305 c -0.431514,0 -0.771067,0.385534 -0.771067,0.880713 0,0.484569 0.339553,0.87364 0.763992,0.87364 0.424441,0 0.763993,-0.389071 0.763993,-0.877177 0,-0.484568 -0.339552,-0.877176 -0.756918,-0.877176 m 0,0.15209 c 0.24759,0 0.385533,0.258202 0.385533,0.725086 0,0.470421 -0.137943,0.725085 -0.392608,0.725085 -0.254663,0 -0.392607,-0.254664 -0.392607,-0.721548 0,-0.481031 0.134408,-0.728623 0.399682,-0.728623 m 1.588113,-0.09904 -0.629586,0.0389 0,0.152091 0.145017,0 c 0.130869,0 0.152091,0.02476 0.152091,0.176851 l 0,0.845343 0,0.137943 c 0,0.145017 -0.0389,0.169776 -0.265275,0.169776 l -0.01415,0 0,0.127332 0.891324,0 0,-0.127332 -0.01415,0 c -0.226369,0 -0.265276,-0.02476 -0.265276,-0.169776 l 0,-0.137943 0,-0.502255 c 0,-0.314792 0.173313,-0.548235 0.403218,-0.548235 0.09196,0 0.190999,0.04952 0.233443,0.116722 0.04952,0.0672 0.07074,0.169776 0.07074,0.314793 l 0,0.618975 0,0.14148 c 0,0.14148 -0.0389,0.166239 -0.268811,0.166239 l -0.01415,0 0,0.127332 0.894861,0 0,-0.127332 -0.01415,0 c -0.226369,0 -0.265276,-0.02476 -0.265276,-0.166239 l 0,-0.14148 0,-0.470422 c 0,-0.353699 0.159165,-0.580068 0.406757,-0.580068 0.11672,0 0.212219,0.06721 0.2582,0.17685 0.03183,0.07782 0.04244,0.155629 0.04244,0.293571 l 0,0.580069 0,0.14148 c 0,0.14148 -0.0389,0.166239 -0.268811,0.166239 l -0.01415,0 0,0.127332 0.894861,0 0,-0.127332 -0.01415,0 c -0.226369,0 -0.265276,-0.02476 -0.265276,-0.169776 l 0,-0.137943 0,-0.650809 c 0,-0.219293 -0.02123,-0.293571 -0.113184,-0.413829 -0.102553,-0.13086 -0.247572,-0.2016 -0.417346,-0.2016 -0.229906,0 -0.399683,0.109648 -0.551773,0.3537 -0.06013,-0.21222 -0.251128,-0.3537 -0.488107,-0.3537 -0.212219,0 -0.371384,0.102573 -0.509328,0.325405 l 0,-0.27235 m 4.077002,0.852417 c 0.0035,-0.530549 -0.297107,-0.905472 -0.728621,-0.905472 -0.452736,0 -0.792289,0.392608 -0.792289,0.923158 0,0.495179 0.321868,0.831195 0.799363,0.831195 0.336015,0 0.576532,-0.166239 0.721548,-0.502255 l -0.123794,-0.0672 c -0.145017,0.272349 -0.293572,0.378459 -0.530552,0.378459 -0.180386,0 -0.311255,-0.07782 -0.403217,-0.233441 -0.06367,-0.10611 -0.09196,-0.229905 -0.08843,-0.424441 l 1.145989,0 m -1.142451,-0.152091 c 0,-0.109646 0.01415,-0.187461 0.04952,-0.286497 0.07428,-0.21222 0.187462,-0.314794 0.357238,-0.314794 0.215757,0 0.357238,0.187462 0.357238,0.470422 0,0.102573 -0.03184,0.130869 -0.145018,0.130869 l -0.618975,0 m 2.73178,0.512866 0,0.102573 c 0,0.148554 -0.03184,0.166239 -0.314792,0.166239 l -0.0672,0 0,0.166239 1.188433,0 c 0.314792,0 0.555309,-0.04952 0.74277,-0.155629 0.357237,-0.201608 0.55531,-0.604827 0.55531,-1.135377 0,-0.484568 -0.176852,-0.870102 -0.502255,-1.082322 -0.194535,-0.123795 -0.456274,-0.180388 -0.859491,-0.180388 l -1.124767,0 0,0.166239 0.0672,0 c 0.282959,0 0.314792,0.01769 0.314792,0.166239 l 0,0.102573 0,1.683614 m 0.597755,0.268812 c -0.176851,0 -0.20161,-0.02123 -0.20161,-0.194536 l 0,-1.82863 c 0,-0.173312 0.02476,-0.198072 0.20161,-0.198072 l 0.183923,0 c 0.604827,0 0.855954,0.328943 0.855954,1.110619 0,0.792288 -0.229904,1.110619 -0.799362,1.110619 l -0.240515,0 m 2.395765,-1.482004 -0.664956,0.0389 0,0.152091 0.180386,0 c 0.130869,0 0.152092,0.02476 0.152092,0.176851 l 0,0.845343 0,0.14148 c 0,0.14148 -0.0389,0.166239 -0.265275,0.166239 l -0.02476,0 0,0.127332 0.916084,0 0,-0.127332 -0.02476,0 c -0.229904,0 -0.268812,-0.02476 -0.268812,-0.166239 l 0,-0.14148 0,-1.213192 m -0.166239,-0.880713 c -0.113184,0 -0.205146,0.09196 -0.205146,0.205146 0,0.109647 0.09196,0.205146 0.201609,0.205146 0.116721,0 0.208683,-0.09196 0.208683,-0.205146 0,-0.113184 -0.09196,-0.205146 -0.205146,-0.205146 m 1.918658,2.009016 c -0.113184,0.254665 -0.233442,0.357238 -0.417366,0.357238 -0.282959,0 -0.459811,-0.258201 -0.459811,-0.672031 0,-0.427976 0.173313,-0.714474 0.435052,-0.714474 0.10611,0 0.198072,0.04952 0.198072,0.10611 0,0.01061 -0.007,0.02123 -0.02123,0.04244 -0.05659,0.0672 -0.07074,0.102573 -0.07074,0.162701 0,0.116721 0.08843,0.198072 0.21222,0.198072 0.123795,0 0.215758,-0.09904 0.215758,-0.240515 0,-0.236979 -0.23698,-0.420903 -0.551772,-0.420903 -0.459811,0 -0.788752,0.378459 -0.788752,0.905471 0,0.502255 0.300646,0.848881 0.739233,0.848881 0.314792,0 0.49518,-0.145017 0.647272,-0.519939 l -0.137944,-0.05305 m 0.885521,-1.128303 0,-0.700326 -0.145017,0 c -0.03537,0.459809 -0.190997,0.693252 -0.477495,0.714474 l 0,0.137943 0.290034,0 0,0.901936 c 0,0.247589 0.007,0.336015 0.04244,0.417365 0.05659,0.148554 0.198072,0.229906 0.403218,0.229906 0.137942,0 0.258201,-0.04244 0.339552,-0.120259 0.116721,-0.113183 0.183924,-0.300645 0.183924,-0.495179 0,-0.02123 0,-0.04598 -0.0035,-0.08135 l -0.148554,0 c -0.01061,0.31833 -0.102572,0.481032 -0.275886,0.481032 -0.08135,0 -0.15209,-0.04244 -0.17685,-0.102573 -0.02123,-0.04952 -0.03184,-0.137943 -0.03184,-0.265275 l 0,-0.965601 0.519939,0 0,-0.152091 -0.519939,0 m 1.417177,0 -0.664956,0.0389 0,0.152091 0.180387,0 c 0.130869,0 0.152091,0.02476 0.152091,0.17685 l 0,0.845344 0,0.14148 c 0,0.141479 -0.0389,0.166239 -0.265274,0.166239 l -0.02476,0 0,0.127332 0.916083,0 0,-0.127332 -0.02476,0 c -0.229904,0 -0.268812,-0.02476 -0.268812,-0.166239 l 0,-0.14148 0,-1.213192 m -0.166239,-0.880714 c -0.113183,0 -0.205146,0.09196 -0.205146,0.205146 0,0.109648 0.09196,0.205146 0.20161,0.205146 0.11672,0 0.208683,-0.09196 0.208683,-0.205146 0,-0.113183 -0.09196,-0.205146 -0.205147,-0.205146 m 1.441162,0.827659 c -0.431514,0 -0.771066,0.385534 -0.771066,0.880713 0,0.484569 0.339552,0.87364 0.763992,0.87364 0.42444,0 0.763992,-0.389071 0.763992,-0.877177 0,-0.484568 -0.339552,-0.877176 -0.756918,-0.877176 m 0,0.15209 c 0.247591,0 0.385533,0.258202 0.385533,0.725086 0,0.470421 -0.137942,0.725085 -0.392607,0.725085 -0.254663,0 -0.392607,-0.254664 -0.392607,-0.721548 0,-0.481031 0.134407,-0.728623 0.399681,-0.728623 m 1.584577,-0.09904 -0.611901,0.0389 0,0.152091 0.127332,0 c 0.130869,0 0.152091,0.02476 0.152091,0.176851 l 0,0.845343 0,0.14148 c 0,0.14148 -0.0389,0.166239 -0.265276,0.166239 l -0.01415,0 0,0.127332 0.89486,0 0,-0.127332 -0.01415,0 c -0.229904,0 -0.268811,-0.02476 -0.268811,-0.166239 l 0,-0.14148 0,-0.367849 c 0,-0.173312 0.02476,-0.332478 0.06367,-0.413829 0.07428,-0.159164 0.233442,-0.268812 0.385533,-0.268812 0.09196,0 0.198072,0.05305 0.251127,0.123795 0.05305,0.07428 0.07782,0.183925 0.07782,0.3537 l 0,0.572995 0,0.14148 c 0,0.14148 -0.0389,0.166239 -0.268812,0.166239 l -0.01415,0 0,0.127332 0.894861,0 0,-0.127332 -0.01415,0 c -0.226368,0 -0.265275,-0.02476 -0.265275,-0.166239 l 0,-0.14148 0,-0.55531 c 0,-0.254663 -0.01061,-0.31833 -0.07428,-0.438588 -0.08843,-0.169776 -0.268812,-0.272349 -0.477495,-0.272349 -0.226367,0 -0.403219,0.106111 -0.558847,0.339552 l 0,-0.286497 m 3.053593,0.509329 c 0,-0.222832 -0.0389,-0.336016 -0.141479,-0.420904 -0.116721,-0.09196 -0.290035,-0.14148 -0.516404,-0.14148 -0.396143,0 -0.689714,0.187462 -0.689714,0.442125 0,0.134406 0.08135,0.219294 0.205146,0.219294 0.109647,0 0.190998,-0.07428 0.190998,-0.180387 0,-0.04598 -0.01769,-0.0955 -0.05305,-0.145017 -0.02123,-0.02476 -0.02476,-0.03537 -0.02476,-0.04598 0,-0.07428 0.145016,-0.137943 0.314792,-0.137943 0.109647,0 0.233442,0.03537 0.290034,0.08843 0.0672,0.05659 0.09196,0.141481 0.09196,0.300645 l 0,0.137944 c -0.371385,0.06367 -0.48457,0.09196 -0.657883,0.159165 -0.304181,0.113183 -0.452735,0.279423 -0.452735,0.502253 0,0.251127 0.201609,0.41383 0.512864,0.41383 0.244052,0 0.463348,-0.09904 0.615438,-0.279424 0.05659,0.180387 0.145017,0.251128 0.311256,0.251128 0.159166,0 0.325406,-0.102574 0.325406,-0.205147 0,-0.02476 -0.01769,-0.04244 -0.03537,-0.04244 -0.01415,0 -0.0283,0.0035 -0.05305,0.01415 -0.05659,0.02123 -0.07074,0.02476 -0.09904,0.02476 -0.09904,0 -0.134407,-0.0672 -0.134407,-0.244053 l 0,-0.710937 m -0.332478,0.431514 c 0,0.21222 -0.01061,0.261739 -0.07074,0.3537 -0.08843,0.130869 -0.251127,0.219294 -0.403217,0.219294 -0.159165,0 -0.279424,-0.116721 -0.279424,-0.275886 0,-0.148553 0.07428,-0.254664 0.229905,-0.328941 0.109647,-0.04952 0.24759,-0.08489 0.523476,-0.130869 l 0,0.162702 m 1.402919,-0.940843 -0.62605,0.0389 0,0.152091 0.145017,0 c 0.130869,0 0.152091,0.02476 0.152091,0.17685 l 0,0.845344 0,0.14148 c 0,0.141479 -0.0389,0.166239 -0.268812,0.166239 l -0.01415,0 0,0.127332 0.944382,0 0,-0.127332 -0.0672,0 c -0.226368,0 -0.265275,-0.02476 -0.265275,-0.166239 l 0,-0.14148 0,-0.03537 c 0,-0.265275 0.04952,-0.534087 0.137944,-0.735697 0.08489,-0.198071 0.205146,-0.307719 0.353699,-0.325404 -0.04952,0.05659 -0.06367,0.09196 -0.06367,0.159165 0,0.113184 0.08135,0.194536 0.194534,0.194536 0.127333,0 0.215758,-0.0955 0.215758,-0.240517 0,-0.169775 -0.120258,-0.28296 -0.307719,-0.28296 -0.222832,0 -0.417366,0.180388 -0.530552,0.491644 l 0,-0.438589 m 1.928939,1.199043 -0.389071,-0.909009 c -0.01415,-0.03184 -0.02123,-0.05659 -0.02123,-0.07428 0,-0.06367 0.04244,-0.08843 0.162703,-0.08843 l 0.07428,0 0,-0.127333 -0.841806,0 0,0.127333 0.0389,0 c 0.113184,0 0.17685,0.04952 0.240516,0.190998 l 0.576531,1.305153 -0.06013,0.123795 c -0.127331,0.268812 -0.29357,0.456273 -0.406755,0.456273 -0.03183,0 -0.05659,-0.01415 -0.05659,-0.03537 0,-0.007 0.0035,-0.01769 0.007,-0.03184 0.01061,-0.03184 0.01769,-0.06367 0.01769,-0.09196 0,-0.09196 -0.07782,-0.159165 -0.180387,-0.159165 -0.123795,0 -0.21222,0.09196 -0.21222,0.219294 0,0.155628 0.137943,0.272349 0.321867,0.272349 0.187461,0 0.346626,-0.09196 0.488106,-0.28296 0.109647,-0.148553 0.180387,-0.290034 0.336015,-0.682641 l 0.403218,-0.997434 c 0.08843,-0.215757 0.162703,-0.286498 0.297109,-0.286498 l 0.02123,0 0,-0.127332 -0.707401,0 0,0.127332 0.05659,0 c 0.134407,0 0.190998,0.0389 0.190998,0.130869 0,0.03537 -0.01061,0.08136 -0.03537,0.14148 l -0.321867,0.799362"
         style="font-size:6px;font-style:normal;font-variant:normal;font-weight:normal;font-stretch:normal;text-align:start;line-height:100%;writing-mode:lr-tb;text-anchor:start;fill:#784421;fill-opacity:1;stroke:none;display:inline;font-family:Century Schoolbook L;-inkscape-font-specification:Century Schoolbook L" />
    </g>
  </g>
  <g
     inkscape:groupmode="layer"
     id="layer5"
     inkscape:label="Highlight"
     style="display:inline">
    <rect
       style="opacity:0.1;fill:url(#linearGradient3613);fill-opacity:1;fill-rule:nonzero;stroke:#ffffff;stroke-width:0.5;stroke-linecap:round;stroke-linejoin:miter;stroke-miterlimit:4;stroke-opacity:1;stroke-dasharray:none;stroke-dashoffset:0;filter:url(#filter3794)"
       id="rect3171"
       width="66"
       height="66"
       x="15"
       y="15"
       rx="12"
       ry="12"
       clip-path="url(#clipPath3613)" />
    <path
       style="opacity:0.01000001;fill:url(#linearGradient3188-0);fill-opacity:1;fill-rule:nonzero;stroke:none;display:inline"
       d="m 16.425603,-117.95143 c -3.324,0 -6,2.676 -6,6 l 0,2 0,67.999998 0,2 c 0,0.334721 0.04135,0.6507 0.09375,0.96875 0.0487,0.295596 0.09704,0.596915 0.1875,0.875 0.0099,0.03038 0.02089,0.0636 0.03125,0.09375 0.09886,0.287771 0.23488,0.547452 0.375,0.8125 0.144592,0.273507 0.315616,0.535615 0.5,0.78125 0.184384,0.245635 0.373776,0.473472 0.59375,0.6875 0.439947,0.428056 0.94291,0.814526 1.5,1.09375 0.278545,0.139612 0.573473,0.246947 0.875,0.34375 -0.256202,-0.100222 -0.486711,-0.236272 -0.71875,-0.375 -0.0074,-0.0044 -0.02387,0.0045 -0.03125,0 -0.03193,-0.0193 -0.06229,-0.04251 -0.09375,-0.0625 -0.120395,-0.0767 -0.231023,-0.163513 -0.34375,-0.25 -0.106173,-0.0808 -0.213281,-0.161112 -0.3125,-0.25 -0.17793,-0.161433 -0.34746,-0.345388 -0.5,-0.53125 -0.107579,-0.130255 -0.218394,-0.265285 -0.3125,-0.40625 -0.02509,-0.03838 -0.03845,-0.08587 -0.0625,-0.125 -0.06476,-0.103032 -0.130228,-0.204517 -0.1875,-0.3125 -0.101008,-0.194706 -0.205675,-0.415701 -0.28125,-0.625 -0.008,-0.02181 -0.02359,-0.04055 -0.03125,-0.0625 -0.03182,-0.09195 -0.0358,-0.186831 -0.0625,-0.28125 -0.03033,-0.106618 -0.07039,-0.203031 -0.09375,-0.3125 -0.07288,-0.341512 -0.125,-0.698205 -0.125,-1.0625 l 0,-2 0,-67.999998 0,-2 c 0,-2.78185 2.218152,-5 5,-5 l 2,0 68,0 2,0 c 2.781848,0 4.999995,2.21815 4.999995,5 l 0,2 0,67.999998 0,2 c 0,0.364295 -0.0521,0.720988 -0.125,1.0625 -0.0442,0.206893 -0.0884,0.397658 -0.15625,0.59375 -0.008,0.02195 -0.0233,0.04069 -0.0312,0.0625 -0.0627,0.173739 -0.13838,0.367449 -0.21875,0.53125 -0.0416,0.0828 -0.07903,0.169954 -0.124995,0.25 -0.0546,0.09721 -0.126774,0.18835 -0.1875,0.28125 -0.09411,0.140965 -0.204921,0.275995 -0.3125,0.40625 -0.143174,0.17445 -0.303141,0.346998 -0.46875,0.5 -0.01117,0.0102 -0.01998,0.02115 -0.03125,0.03125 -0.138386,0.125556 -0.285091,0.234436 -0.4375,0.34375 -0.102571,0.07315 -0.204318,0.153364 -0.3125,0.21875 -0.0074,0.0045 -0.02384,-0.0044 -0.03125,0 -0.232039,0.138728 -0.462548,0.274778 -0.71875,0.375 0.301527,-0.0968 0.596455,-0.204138 0.875,-0.34375 0.55709,-0.279224 1.060053,-0.665694 1.5,-1.09375 0.219975,-0.214028 0.409365,-0.441865 0.593745,-0.6875 0.18439,-0.245635 0.35541,-0.507743 0.5,-0.78125 0.14012,-0.265048 0.27614,-0.524729 0.375,-0.8125 0.0104,-0.03078 0.0213,-0.06274 0.0312,-0.09375 0.0905,-0.278085 0.1388,-0.579404 0.1875,-0.875 0.0524,-0.31805 0.0937,-0.634029 0.0937,-0.96875 l 0,-2 0,-67.999998 0,-2 c 0,-3.324 -2.675995,-6 -5.999995,-6 l -72,0 z"
       id="rect3728-1"
       inkscape:connector-curvature="0" />
    <path
       id="path3615-6"
       d="m 16.425603,-33.951432 c -3.324,0 -6,-2.676 -6,-6 l 0,-2 0,-67.999998 0,-2 c 0,-0.33472 0.04135,-0.6507 0.09375,-0.96875 0.0487,-0.2956 0.09704,-0.59692 0.1875,-0.875 0.0099,-0.0304 0.02089,-0.0636 0.03125,-0.0937 0.09886,-0.28777 0.23488,-0.54745 0.375,-0.8125 0.144592,-0.27351 0.315616,-0.53562 0.5,-0.78125 0.184384,-0.24564 0.373776,-0.47347 0.59375,-0.6875 0.439947,-0.42806 0.94291,-0.81453 1.5,-1.09375 0.278545,-0.13961 0.573473,-0.24695 0.875,-0.34375 -0.256202,0.10022 -0.486711,0.23627 -0.71875,0.375 -0.0074,0.004 -0.02387,-0.004 -0.03125,0 -0.03193,0.0193 -0.06229,0.0425 -0.09375,0.0625 -0.120395,0.0767 -0.231023,0.16351 -0.34375,0.25 -0.106173,0.0808 -0.213281,0.16111 -0.3125,0.25 -0.17793,0.16143 -0.34746,0.34539 -0.5,0.53125 -0.107579,0.13025 -0.218394,0.26528 -0.3125,0.40625 -0.02509,0.0384 -0.03845,0.0859 -0.0625,0.125 -0.06476,0.10303 -0.130228,0.20451 -0.1875,0.3125 -0.101008,0.1947 -0.205675,0.4157 -0.28125,0.625 -0.008,0.0218 -0.02359,0.0405 -0.03125,0.0625 -0.03182,0.0919 -0.0358,0.18683 -0.0625,0.28125 -0.03033,0.10662 -0.07039,0.20303 -0.09375,0.3125 -0.07288,0.34151 -0.125,0.6982 -0.125,1.0625 l 0,2 0,67.999998 0,2 c 0,2.781848 2.218152,5 5,5 l 2,0 68,0 2,0 c 2.781848,0 4.999995,-2.218152 4.999995,-5 l 0,-2 0,-67.999998 0,-2 c 0,-0.3643 -0.0521,-0.72099 -0.125,-1.0625 -0.0442,-0.2069 -0.0884,-0.39766 -0.15625,-0.59375 -0.008,-0.022 -0.0233,-0.0407 -0.0312,-0.0625 -0.0627,-0.17374 -0.13838,-0.36745 -0.21875,-0.53125 -0.0416,-0.0828 -0.07903,-0.16996 -0.124995,-0.25 -0.0546,-0.0972 -0.126774,-0.18835 -0.1875,-0.28125 -0.09411,-0.14097 -0.204921,-0.276 -0.3125,-0.40625 -0.143174,-0.17445 -0.303141,-0.347 -0.46875,-0.5 -0.01117,-0.0102 -0.01998,-0.0211 -0.03125,-0.0312 -0.138386,-0.12556 -0.285091,-0.23444 -0.4375,-0.34375 -0.102571,-0.0731 -0.204318,-0.15337 -0.3125,-0.21875 -0.0074,-0.004 -0.02384,0.004 -0.03125,0 -0.232039,-0.13873 -0.462548,-0.27478 -0.71875,-0.375 0.301527,0.0968 0.596455,0.20414 0.875,0.34375 0.55709,0.27922 1.060053,0.66569 1.5,1.09375 0.219975,0.21403 0.409365,0.44186 0.593745,0.6875 0.18439,0.24563 0.35541,0.50774 0.5,0.78125 0.14012,0.26505 0.27614,0.52473 0.375,0.8125 0.0104,0.0308 0.0213,0.0627 0.0312,0.0937 0.0905,0.27808 0.1388,0.5794 0.1875,0.875 0.0524,0.31805 0.0937,0.63403 0.0937,0.96875 l 0,2 0,67.999998 0,2 c 0,3.324 -2.675995,6 -5.999995,6 l -72,0 z"
       style="opacity:0.15;fill:url(#radialGradient3619-5);fill-opacity:1;fill-rule:nonzero;stroke:none;display:inline"
       inkscape:connector-curvature="0" />
    <g
       id="g6229"
       transform="translate(-60,-1.0000043)">
      <path
         style="color:#000000;fill:#4d4d4d;fill-opacity:1;fill-rule:nonzero;stroke:none;stroke-width:1;marker:none;visibility:visible;display:inline;overflow:visible;filter:url(#filter5438);enable-background:accumulate"
         d="m 111.75,92.999998 c -0.9695,0 -1.75,0.892 -1.75,2 L 110,115 l -6,0 13,14 12.99999,-14 -6,0 0,-20.000002 c 0,-1.108 -0.7805,-2 -1.75,-2 l -10.49999,0 z"
         id="path5452"
         sodipodi:nodetypes="cccccccccc"
         transform="matrix(1.0640865,0,0,-1.0485342,2.105885,193.7833)" />
      <path
         sodipodi:nodetypes="cccccccccc"
         id="path5454"
         d="m 121.354,94.896002 c -0.9695,0 -1.75,-0.892 -1.75,-2 l 0,-20.000002 -6,0 13,-14 12.99999,14 -6,0 0,20.000002 c 0,1.108 -0.7805,2 -1.75,2 l -10.49999,0 z"
         style="color:#000000;fill:url(#linearGradient6235);fill-opacity:1;fill-rule:nonzero;stroke:none;stroke-width:1;marker:none;visibility:visible;display:inline;overflow:visible;enable-background:accumulate" />
      <path
         id="path5456"
         d="m 121.354,94.896002 c -0.9695,0 -1.75,-0.892 -1.75,-2 l 0,-1.000003 c 0,1.108003 0.7805,2.000003 1.75,2.000003 l 10.49999,0 c 0.9695,0 1.75,-0.892 1.75,-2.000003 l 0,1.000003 c 0,1.108 -0.7805,2 -1.75,2 l -10.49999,0 z m -7.75,-22.000002 0.9375,-1 5.0625,0 0,1 -6,0 z m 19.99999,0 0,-1 5.0625,0 0.9375,1 -6,0 z"
         style="opacity:0.2;color:#000000;fill:#000000;fill-opacity:1;fill-rule:nonzero;stroke:none;stroke-width:1;marker:none;visibility:visible;display:inline;overflow:visible;enable-background:accumulate" />
      <path
         id="path5458"
         d="m 113.604,72.896 13,-14 12.99999,14 -0.9375,0 -12.06249,-13 -12.0625,13 -0.9375,0 z"
         style="opacity:0.3;color:#000000;fill:#ffffff;fill-opacity:1;fill-rule:nonzero;stroke:none;stroke-width:1;marker:none;visibility:visible;display:inline;overflow:visible;enable-background:accumulate" />
    </g>
  </g>
</svg>
