<?xml version="1.0" encoding="UTF-8" standalone="no"?>
<!-- Created with Inkscape (http://www.inkscape.org/) -->

<svg
   xmlns:dc="http://purl.org/dc/elements/1.1/"
   xmlns:cc="http://creativecommons.org/ns#"
   xmlns:rdf="http://www.w3.org/1999/02/22-rdf-syntax-ns#"
   xmlns:svg="http://www.w3.org/2000/svg"
   xmlns="http://www.w3.org/2000/svg"
   xmlns:xlink="http://www.w3.org/1999/xlink"
   xmlns:sodipodi="http://sodipodi.sourceforge.net/DTD/sodipodi-0.dtd"
   xmlns:inkscape="http://www.inkscape.org/namespaces/inkscape"
   width="96"
   height="96"
   id="svg2408"
   sodipodi:version="0.32"
   inkscape:version="0.47 r22583"
   version="1.0"
   sodipodi:docname="icon_comment.svg"
   inkscape:output_extension="org.inkscape.output.svg.inkscape"
   style="display:inline">
  <defs
     id="defs2410">
    <linearGradient
       id="linearGradient4475">
      <stop
         style="stop-color:#ffffff;stop-opacity:0.64028776;"
         offset="0"
         id="stop4477" />
      <stop
         id="stop4479"
         offset="0.14700636"
         style="stop-color:#ffffff;stop-opacity:0.31764706;" />
      <stop
         style="stop-color:#ffffff;stop-opacity:0;"
         offset="1"
         id="stop4481" />
    </linearGradient>
    <linearGradient
       id="ButtonColor"
       x1="58.650177"
       y1="122"
       x2="58.650177"
       y2="5.4252338"
       gradientUnits="userSpaceOnUse"
       gradientTransform="matrix(1.0172414,0,0,1.0172414,-1.1034483,-1.1034483)">
      <stop
         style="stop-color:#e4b31e;stop-opacity:1;"
         offset="0"
         id="stop3189" />
      <stop
         style="stop-color:#ffef64;stop-opacity:1;"
         offset="1"
         id="stop3191" />
    </linearGradient>
    <filter
       inkscape:collect="always"
       id="filter4995-9"
       color-interpolation-filters="sRGB">
      <feGaussianBlur
         inkscape:collect="always"
         stdDeviation="1.8983236"
         id="feGaussianBlur4997-3" />
    </filter>
    <linearGradient
       inkscape:collect="always"
       xlink:href="#ButtonColor"
       id="linearGradient3481"
       gradientUnits="userSpaceOnUse"
       gradientTransform="matrix(1.2248383,0,0,1.2248383,-11.282151,-7.7975041)"
       x1="48.082497"
       y1="75.561722"
       x2="46.654823"
       y2="16.972879" />
    <linearGradient
       inkscape:collect="always"
       xlink:href="#linearGradient4475"
       id="linearGradient3474-5"
       gradientUnits="userSpaceOnUse"
       gradientTransform="matrix(1.2248383,0,0,1.2248383,-11.282151,-89.022898)"
       x1="13.521217"
       y1="70.19252"
       x2="79.191727"
       y2="127.31133" />
    <filter
       inkscape:collect="always"
       id="filter4471">
      <feGaussianBlur
         inkscape:collect="always"
         stdDeviation="0.75484397"
         id="feGaussianBlur4473" />
    </filter>
    <linearGradient
       inkscape:collect="always"
       xlink:href="#ButtonColor"
       id="linearGradient2877"
       gradientUnits="userSpaceOnUse"
       gradientTransform="matrix(1.2248383,0,0,1.2248383,-11.282151,-7.7975041)"
       x1="48.082497"
       y1="75.561722"
       x2="46.654823"
       y2="16.972879" />
    <linearGradient
       inkscape:collect="always"
       xlink:href="#linearGradient4475"
       id="linearGradient2879"
       gradientUnits="userSpaceOnUse"
       gradientTransform="matrix(1.2248383,0,0,1.2248383,-11.282151,-89.022898)"
       x1="13.521217"
       y1="70.19252"
       x2="79.191727"
       y2="127.31133" />
  </defs>
  <sodipodi:namedview
     id="base"
     pagecolor="#ffffff"
     bordercolor="#666666"
     borderopacity="1.0"
     inkscape:pageopacity="0.0"
     inkscape:pageshadow="2"
     inkscape:zoom="4"
     inkscape:cx="48"
     inkscape:cy="47.520335"
     inkscape:document-units="px"
     inkscape:current-layer="layer5"
     showgrid="false"
     showborder="true"
     inkscape:showpageshadow="false"
     inkscape:window-width="1366"
     inkscape:window-height="677"
     inkscape:window-x="0"
     inkscape:window-y="32"
     inkscape:window-maximized="1">
    <inkscape:grid
       type="xygrid"
       id="grid3732"
       visible="true"
       enabled="true"
       empspacing="5"
       snapvisiblegridlinesonly="true" />
  </sodipodi:namedview>
  <metadata
     id="metadata2413">
    <rdf:RDF>
      <cc:Work
         rdf:about="">
        <dc:format>image/svg+xml</dc:format>
        <dc:type
           rdf:resource="http://purl.org/dc/dcmitype/StillImage" />
        <dc:title></dc:title>
      </cc:Work>
    </rdf:RDF>
  </metadata>
  <g
     inkscape:groupmode="layer"
     id="layer4"
     inkscape:label="Shadow"
     style="display:inline" />
  <g
     inkscape:label="Button"
     inkscape:groupmode="layer"
     id="layer1"
     style="display:inline" />
  <g
     inkscape:groupmode="layer"
     id="layer5"
     inkscape:label="Highlight"
     style="display:inline">
    <g
       id="g2852"
       transform="matrix(1.0434783,0,0,1.0434783,-2.0869569,-5.0869592)"
       inkscape:export-filename="/home/leo/Escritorio/avanzando_PFC/project/terminator/static/images/comment_24.png"
       inkscape:export-xdpi="22.237028"
       inkscape:export-ydpi="22.237028">
      <path
         transform="matrix(1.2248383,0,0,1.2248383,471.30414,-469.22159)"
         sodipodi:nodetypes="cscccssc"
         id="path3620-9-4"
         d="m -345.60002,394.72254 c -18.2254,0 -33,12.08831 -33,27 0,9.49844 5.99976,17.84346 15.0625,22.65625 -0.34463,2.50876 -1.91402,8.64982 -9.34375,10.75 9.62291,1.04582 16.0136,-3.6463 19.40625,-7.1875 2.5235,0.5055 5.16106,0.78125 7.875,0.78125 18.2254,0 33,-12.08831 33,-27 0,-14.91169 -14.7746,-27 -33,-27 z"
         style="fill:#808080;fill-opacity:1;stroke:none;display:inline;filter:url(#filter4995-9)" />
      <path
         sodipodi:nodetypes="cscccssc"
         id="path3620-8"
         d="m 47.51009,13.024747 c -22.32317,0 -40.4196703,14.806225 -40.4196703,33.070634 0,11.634054 7.3487403,21.855354 18.4491303,27.750243 -0.4221,3.072813 -2.34435,10.594631 -11.44458,13.167012 11.78651,1.28096 19.61407,-4.46614 23.76952,-8.803525 3.09089,0.619155 6.32147,0.956905 9.6456,0.956905 22.32317,0 40.41966,-14.806226 40.41966,-33.070635 0,-18.264409 -18.09649,-33.070634 -40.41966,-33.070634 z"
         style="fill:url(#linearGradient2877);fill-opacity:1;stroke:none;display:inline" />
      <g
         id="text4313-2"
         style="font-size:13.62550926px;font-style:normal;font-variant:normal;font-weight:bold;font-stretch:normal;text-align:center;line-height:125%;writing-mode:lr-tb;text-anchor:middle;opacity:0.5;fill:#000000;fill-opacity:1;stroke:none;display:inline;font-family:dwerneck;-inkscape-font-specification:dwerneck Bold"
         transform="translate(0.23169942,4.2433948)">
        <path
           id="path4345-1"
           d="m 25.399347,29.224615 c -0.163513,0.163515 -0.363354,0.290687 -0.599523,0.381514 -0.227097,0.09085 -0.472356,0.163515 -0.735777,0.218009 -0.254348,0.05451 -0.508691,0.09993 -0.763029,0.136255 -0.254347,0.02726 -0.490522,0.06814 -0.708526,0.122629 0.109,0.481443 0.172585,1.008295 0.190757,1.580559 0.01816,0.572278 0.02725,1.162716 0.02725,1.771317 -4e-6,0.599526 0.0091,1.20359 0.02725,1.812192 0.01816,0.599525 0.08175,1.171796 0.190757,1.716814 0.327008,0.0545 0.649478,0.06813 0.967411,0.04088 0.327007,-0.03633 0.640393,-0.05904 0.94016,-0.06813 0.308839,-0.01816 0.6086,2e-6 0.899284,0.0545 0.299754,0.0545 0.585889,0.190759 0.858407,0.408766 -8e-6,0.09992 -0.03634,0.181674 -0.109004,0.245259 -0.07268,0.0545 -0.172598,0.09992 -0.299761,0.136255 -0.118095,0.03634 -0.25435,0.07267 -0.408765,0.109004 -0.15443,0.02725 -0.313394,0.06813 -0.476893,0.12263 -0.535943,0 -1.085505,0.03634 -1.648687,0.109004 -0.563192,0.06359 -1.126379,0.131713 -1.689563,0.204382 -0.563191,0.06359 -1.126378,0.118088 -1.689563,0.163506 -0.563189,0.03634 -1.112751,0.02725 -1.648687,-0.02725 -0.09992,-0.09992 -0.158964,-0.213466 -0.177131,-0.340637 -0.01817,-0.136255 -0.02725,-0.308844 -0.02725,-0.51777 0.263426,-0.109003 0.526852,-0.172588 0.790279,-0.190757 0.272509,-0.01817 0.545019,-0.03179 0.817531,-0.04088 0.272508,-0.01817 0.540476,-0.04996 0.803905,-0.09538 0.272507,-0.04542 0.540475,-0.149879 0.803905,-0.313387 -0.09992,-0.490516 -0.163509,-1.035536 -0.190757,-1.635061 -0.01817,-0.599518 -0.03634,-1.208124 -0.0545,-1.825818 -0.0091,-0.617684 -0.04088,-1.221748 -0.09538,-1.812193 -0.04542,-0.590431 -0.149883,-1.126367 -0.313387,-1.60781 -0.208926,0.05451 -0.445102,0.09085 -0.708526,0.109004 -0.254345,0.01818 -0.517771,0.01363 -0.79028,-0.01362 -0.272511,-0.02724 -0.540479,-0.08175 -0.803905,-0.163506 -0.254343,-0.09083 -0.485976,-0.218 -0.694901,-0.381515 -0.0545,-0.05449 -0.08175,-0.118078 -0.08175,-0.190757 1e-6,-0.07266 0.02271,-0.140787 0.06813,-0.204382 0.03634,-0.07266 0.09538,-0.131704 0.177131,-0.177132 0.07267,-0.04541 0.163507,-0.06812 0.272511,-0.06813 0.218008,9e-6 0.454183,0.0091 0.708526,0.02725 0.254342,0.01818 0.508685,0.02272 0.763029,0.01362 0.263424,-0.01816 0.508683,-0.05449 0.735777,-0.109004 0.236173,-0.06358 0.436014,-0.177122 0.599523,-0.340638 0.208921,0.109014 0.431471,0.1726 0.667649,0.190757 0.236172,0.0091 0.472348,10e-6 0.708527,-0.02725 0.245255,-0.02724 0.490514,-0.05449 0.735777,-0.08175 0.245254,-0.03632 0.48143,-0.04995 0.708527,-0.04088 0.23617,0.0091 0.458719,0.05905 0.66765,0.14988 0.208918,0.08176 0.404217,0.231644 0.585897,0.449642" />
        <path
           id="path4347-2"
           d="m 27.62137,34.197926 c -2e-6,0.227096 -2e-6,0.476897 0,0.749403 0.0091,0.26343 0.02725,0.531398 0.0545,0.803905 0.02725,0.263429 0.07267,0.517772 0.136255,0.763029 0.06358,0.236177 0.149879,0.440559 0.258884,0.613148 0.163505,-0.227091 0.272509,-0.495059 0.327013,-0.803905 0.06358,-0.308843 0.136253,-0.604062 0.218008,-0.885659 0.09083,-0.28159 0.222547,-0.517765 0.395139,-0.708526 0.172588,-0.199837 0.454181,-0.299757 0.844782,-0.299761 0.227088,0.16351 0.390594,0.345183 0.490518,0.54502 0.09992,0.190761 0.177128,0.390601 0.231634,0.599523 0.0545,0.208927 0.104458,0.426935 0.149881,0.654024 0.0545,0.21801 0.13625,0.44056 0.245259,0.66765 0.172585,-0.163504 0.322465,-0.367887 0.449642,-0.613148 0.127166,-0.25434 0.258879,-0.485974 0.395139,-0.694901 0.145334,-0.218005 0.30884,-0.381511 0.490519,-0.490518 0.181667,-0.109001 0.413301,-0.109001 0.694901,0 0.227085,0.281597 0.386049,0.576816 0.476892,0.885658 0.09083,0.308847 0.136248,0.626775 0.136256,0.953785 -8e-6,0.327014 -0.04088,0.658568 -0.12263,0.994663 -0.07268,0.327012 -0.168055,0.658566 -0.286136,0.994662 -0.09993,0.109003 -0.208931,0.181673 -0.327012,0.218008 -0.10901,0.03633 -0.218014,0.113545 -0.327012,0.231634 -0.10901,-0.172591 -0.172596,-0.331555 -0.190757,-0.476893 -0.01817,-0.145339 -0.02272,-0.286136 -0.01363,-0.422391 0.01816,-0.145339 0.03179,-0.286135 0.04088,-0.422391 0.0091,-0.145338 -0.01817,-0.29976 -0.08175,-0.463267 -0.10901,0.109005 -0.199847,0.218009 -0.27251,0.327012 -0.06359,0.109005 -0.131719,0.22255 -0.204383,0.340638 -0.06359,0.109004 -0.140802,0.218008 -0.231634,0.327012 -0.09084,0.118088 -0.218013,0.231633 -0.381514,0.340638 -0.23618,-10e-7 -0.463272,-0.0091 -0.681276,-0.02725 -0.218012,-0.01817 -0.445103,-0.09084 -0.681275,-0.218008 l -0.231634,-1.784942 c -0.109007,0.172591 -0.208927,0.358806 -0.299761,0.558646 -0.09084,0.190758 -0.186218,0.39514 -0.286136,0.613148 -0.09084,0.208924 -0.199843,0.422391 -0.327012,0.640399 -0.11809,0.218007 -0.258886,0.440557 -0.422391,0.66765 -0.163507,-1e-6 -0.308846,-0.0045 -0.436016,-0.01363 -0.118089,-1e-6 -0.227093,-0.01363 -0.327012,-0.04088 -0.09992,-0.02725 -0.1953,-0.07267 -0.286136,-0.136256 -0.09084,-0.06359 -0.195299,-0.149881 -0.313386,-0.258884 -0.227093,-0.799363 -0.358806,-1.625976 -0.39514,-2.479843 -0.03634,-0.853862 -0.0545,-1.671392 -0.0545,-2.452592 0,-0.281589 0.05904,-0.45872 0.177131,-0.531394 0.118088,-0.08175 0.249801,-0.09537 0.39514,-0.04088 0.145338,0.05451 0.277051,0.158969 0.39514,0.313387 0.118087,0.145343 0.17713,0.299765 0.177132,0.463267" />
        <path
           id="path4349-8"
           d="m 38.002304,32.794499 c 0.199837,0.354268 0.286132,0.694906 0.258885,1.021913 -0.01817,0.327016 -0.104466,0.644945 -0.258885,0.953785 -0.154426,0.308849 -0.345183,0.604068 -0.572271,0.885659 -0.227095,0.272512 -0.440561,0.535939 -0.640399,0.790279 -0.354266,0.09992 -0.599525,0.281596 -0.735777,0.54502 -0.127174,0.254345 -0.204385,0.549564 -0.231634,0.885659 -0.02725,0.327012 -0.0318,0.672191 -0.01363,1.035538 0.02725,0.363346 0.01362,0.6949 -0.04088,0.994662 l 0,3.474505 c -0.09992,0.09992 -0.199843,0.15896 -0.299761,0.177132 -0.09992,0.01816 -0.208926,0.02725 -0.327013,0.02725 -0.24526,-0.199846 -0.417849,-0.436021 -0.517769,-0.708527 -0.09084,-0.272514 -0.154423,-0.558649 -0.190757,-0.858407 -0.03634,-0.29068 -0.06813,-0.585899 -0.09538,-0.885658 -0.01817,-0.29068 -0.08175,-0.558648 -0.190757,-0.803905 0,-0.717611 -0.02271,-1.417053 -0.06813,-2.098328 -0.04542,-0.690358 -0.04996,-1.362549 -0.01363,-2.016576 0.04542,-0.663105 0.158964,-1.312587 0.340638,-1.948447 0.181673,-0.635853 0.504143,-1.262625 0.967411,-1.880321 0.145337,-0.154416 0.345178,-0.277045 0.599522,-0.367888 0.254341,-0.09991 0.513225,-0.140791 0.776654,-0.12263 0.272508,0.0091 0.522308,0.0863 0.749404,0.231634 0.236171,0.136261 0.404219,0.358811 0.504143,0.66765 m -1.021913,0.163506 c -0.299764,0.05451 -0.531397,0.168053 -0.694901,0.340637 -0.163508,0.163512 -0.277054,0.354269 -0.340638,0.572272 -0.06359,0.218012 -0.09084,0.449646 -0.08175,0.694901 0.01817,0.236179 0.0545,0.458729 0.109004,0.66765 0.154421,-0.154419 0.304301,-0.308841 0.449642,-0.463268 0.145336,-0.163502 0.267966,-0.336091 0.367889,-0.517769 0.09992,-0.181669 0.168045,-0.376968 0.204383,-0.585897 0.04541,-0.208919 0.04087,-0.445094 -0.01363,-0.708526" />
        <path
           id="path4351-6"
           d="m 43.749501,34.225177 c 0.23617,0.626777 0.345174,1.194506 0.327012,1.703189 -0.01817,0.508688 -0.218013,1.012831 -0.599522,1.512431 -0.490523,0.490519 -1.031001,0.808447 -1.621436,0.953786 -0.590441,0.145339 -1.199047,0.149881 -1.825818,0.01363 -0.127173,-0.0545 -0.240719,-0.122629 -0.340638,-0.204382 -0.09084,-0.09084 -0.181674,-0.190757 -0.27251,-0.299761 -0.09084,-0.109004 -0.186216,-0.22255 -0.286136,-0.340638 -0.09084,-0.118087 -0.195299,-0.240716 -0.313386,-0.367889 -0.07267,-0.245257 -0.109004,-0.517767 -0.109004,-0.81753 0,-0.299759 0.03179,-0.594978 0.09538,-0.885659 0.06359,-0.299757 0.154422,-0.581351 0.27251,-0.844781 0.118088,-0.263422 0.267968,-0.485972 0.449642,-0.66765 0.308844,-0.436011 0.667649,-0.758481 1.076415,-0.967411 0.408763,-0.218003 0.812986,-0.317923 1.212671,-0.299761 0.408761,0.0091 0.785733,0.140802 1.130917,0.395139 0.345175,0.245265 0.613143,0.617695 0.803905,1.117292 m -1.253547,0.981037 c 0.0545,-0.127168 0.05904,-0.258881 0.01363,-0.39514 -0.04542,-0.136251 -0.122634,-0.240713 -0.231634,-0.313387 -0.109008,-0.08175 -0.236179,-0.113541 -0.381514,-0.09538 -0.136258,0.01817 -0.272513,0.118091 -0.408765,0.299761 -0.09992,-0.118084 -0.218011,-0.136251 -0.354264,-0.0545 -0.127174,0.08176 -0.249803,0.190761 -0.367888,0.327012 -0.0545,0.127175 -0.136258,0.267972 -0.24526,0.422391 -0.09992,0.145342 -0.190759,0.304306 -0.27251,0.476893 -0.08175,0.172592 -0.131715,0.349723 -0.14988,0.531395 -0.0091,0.181675 0.04542,0.36789 0.163506,0.558645 l 1.226296,0 c 0.38151,-0.136253 0.644937,-0.367886 0.790279,-0.694901 0.145335,-0.336093 0.218004,-0.690356 0.218008,-1.062789" />
        <path
           id="path4353-9"
           d="m 46.594892,33.76191 0,0.517769 c 0.245257,-0.317924 0.481432,-0.604059 0.708527,-0.858407 0.236172,-0.254337 0.481431,-0.472345 0.735777,-0.654024 0.254339,-0.190752 0.526849,-0.349716 0.817531,-0.476893 0.290672,-0.127165 0.622226,-0.218002 0.994662,-0.27251 0.08175,0.290683 0.09083,0.558651 0.02725,0.803905 -0.06359,0.236181 -0.177137,0.463272 -0.340638,0.681275 -0.154427,0.208929 -0.340642,0.413312 -0.558646,0.613148 -0.218012,0.199845 -0.43602,0.399686 -0.654024,0.599522 -0.208928,0.199845 -0.404227,0.408769 -0.585897,0.626774 -0.181677,0.208927 -0.31339,0.440561 -0.39514,0.694901 -0.127174,0.190759 -0.227094,0.404225 -0.299761,0.640399 -0.07267,0.236177 -0.149883,0.472352 -0.231634,0.708526 -0.07267,0.236177 -0.163508,0.458726 -0.27251,0.66765 -0.109006,0.208925 -0.258886,0.376973 -0.449642,0.504144 -0.07267,0 -0.154424,-0.0045 -0.245259,-0.01363 -0.08175,0 -0.172591,-0.01363 -0.27251,-0.04088 -0.09084,-0.03634 -0.181674,-0.09084 -0.27251,-0.163506 -0.09084,-0.07267 -0.168049,-0.17259 -0.231634,-0.299761 -0.06359,-0.436016 -0.09992,-0.876573 -0.109004,-1.321675 0,-0.445097 0.01362,-0.903822 0.04088,-1.376176 0.03633,-0.472347 0.08175,-0.962865 0.136255,-1.471555 0.06358,-0.508681 0.131712,-1.049159 0.204382,-1.621436 -10e-7,-0.0545 0.01363,-0.122623 0.04088,-0.204382 0.03633,-0.09083 0.08175,-0.177125 0.136255,-0.258885 0.06358,-0.08175 0.140796,-0.149874 0.231634,-0.204383 0.09992,-0.0545 0.213464,-0.08175 0.340637,-0.08175 0.190756,0.127179 0.308843,0.281601 0.354264,0.463268 0.0545,0.181679 0.08175,0.376978 0.08175,0.585896 -3e-6,0.199847 -0.0045,0.404229 -0.01363,0.613148 -0.0091,0.20893 0.01816,0.408771 0.08175,0.599523" />
        <path
           id="path4355-5"
           d="m 52.724881,29.197364 c 0.0545,0.354272 0.07266,0.717619 0.0545,1.090041 -0.0091,0.372438 -0.0318,0.74941 -0.06813,1.130917 -0.02726,0.372438 -0.06359,0.744868 -0.109004,1.117292 -0.03634,0.372436 -0.05451,0.735783 -0.0545,1.090041 0.09992,0.109009 0.218004,0.195303 0.354263,0.258884 0.136251,0.06359 0.267964,0.127176 0.39514,0.190757 0.127167,0.06359 0.231629,0.140802 0.313387,0.231634 0.09083,0.08176 0.13625,0.195303 0.136255,0.340638 -0.09992,0.04542 -0.199846,0.07267 -0.299761,0.08175 -0.09084,0.0091 -0.190762,0.01363 -0.299762,0.01363 -0.09992,4e-6 -0.199844,0.0045 -0.299761,0.01363 -0.09992,4e-6 -0.199844,0.02271 -0.299761,0.06813 -4e-6,0.254347 -0.0091,0.531399 -0.02725,0.831157 -0.01817,0.299763 -0.03634,0.608608 -0.0545,0.926534 -0.0091,0.308847 -0.01363,0.626775 -0.01362,0.953786 0.0091,0.317929 0.04087,0.631315 0.09538,0.94016 -0.208928,0.09084 -0.381517,0.136255 -0.517769,0.136255 -0.136258,0 -0.304306,-0.04542 -0.504144,-0.136255 -0.145341,-0.363347 -0.231636,-0.699442 -0.258885,-1.008288 -0.01817,-0.308843 -0.01363,-0.608604 0.01363,-0.899283 0.02725,-0.290676 0.0545,-0.576811 0.08175,-0.858407 0.02725,-0.281591 0.01362,-0.57681 -0.04088,-0.885659 -0.06359,-0.09992 -0.149883,-0.15896 -0.258884,-0.177131 -0.09992,-0.02725 -0.213469,-0.03179 -0.340638,-0.01363 -0.127173,0.0091 -0.263428,0.02726 -0.408765,0.0545 -0.136257,0.01817 -0.26797,0.02271 -0.39514,0.01363 -0.127172,-0.0091 -0.24526,-0.04541 -0.354263,-0.109004 -0.09992,-0.07267 -0.181674,-0.195295 -0.24526,-0.367889 -0.0545,-0.145334 -0.04996,-0.25888 0.01363,-0.340638 0.06358,-0.08175 0.154422,-0.140792 0.27251,-0.177131 0.127171,-0.04541 0.272509,-0.06812 0.436016,-0.06813 0.163505,-0.0091 0.322469,-0.01362 0.476893,-0.01362 l 0.803905,0 0.422391,-4.646299 c -3e-6,-0.299751 0.04996,-0.472341 0.149881,-0.517769 0.09992,-0.05449 0.208921,-0.04087 0.327012,0.04088 0.127168,0.07268 0.240714,0.186225 0.340638,0.340638 0.109,0.145348 0.163502,0.263436 0.163506,0.354263" />
        <path
           id="path4357-5"
           d="m 59.452052,33.952667 c 0.09991,0.190761 0.154417,0.390602 0.163506,0.599522 0.0091,0.208929 -6e-6,0.417853 -0.02725,0.626774 -0.01817,0.199844 -0.04542,0.399684 -0.08175,0.599522 -0.02726,0.19076 -0.03634,0.372433 -0.02725,0.545021 0.0091,0.172591 0.0545,0.331555 0.136255,0.476892 0.08175,0.145341 0.222544,0.26797 0.42239,0.367889 0.290672,10e-7 0.563182,-0.02725 0.817531,-0.08175 0.26342,-0.06358 0.51322,-0.122628 0.749403,-0.177132 0.245252,-0.06358 0.476885,-0.10446 0.694901,-0.122629 0.227083,-0.02725 0.449633,-0.0045 0.66765,0.06813 0.07266,0.08176 0.140788,0.177133 0.204383,0.286136 0.06358,0.09992 0.113536,0.204384 0.14988,0.313387 0.03633,0.109005 0.04995,0.218009 0.04088,0.327012 -9e-6,0.09992 -0.03634,0.186216 -0.109004,0.258885 -0.290687,0.07267 -0.581364,0.17259 -0.872033,0.299761 -0.290685,0.118088 -0.585904,0.22255 -0.885658,0.313387 -0.290685,0.09084 -0.581362,0.145338 -0.872033,0.163506 -0.290683,0.01817 -0.581361,-0.04542 -0.872032,-0.190757 -0.145344,-0.07267 -0.295225,-0.17259 -0.449642,-0.299762 -0.145344,-0.127171 -0.295224,-0.245258 -0.449642,-0.354263 -0.145343,-0.109003 -0.295224,-0.190756 -0.449642,-0.245259 -0.145343,-0.0545 -0.290681,-0.04542 -0.436016,0.02725 -0.136259,0.290678 -0.308848,0.481435 -0.517769,0.572271 -0.208928,0.09084 -0.436019,0.118088 -0.681276,0.08175 -0.236178,-0.03633 -0.481437,-0.118087 -0.735777,-0.245259 -0.245261,-0.127171 -0.476894,-0.263426 -0.694901,-0.408765 -0.07267,-0.07267 -0.177133,-0.145338 -0.313387,-0.218008 -0.127172,-0.08175 -0.254343,-0.168047 -0.381514,-0.258885 -0.127172,-0.09083 -0.240718,-0.190756 -0.340638,-0.299761 -0.09084,-0.118086 -0.136255,-0.254341 -0.136255,-0.408765 0.218008,-0.363345 0.485976,-0.694899 0.803905,-0.994662 0.327011,-0.299758 0.67219,-0.585894 1.035539,-0.858408 0.372428,-0.272506 0.753942,-0.540474 1.144542,-0.803905 0.390595,-0.272505 0.767567,-0.554098 1.130918,-0.844781 0.136251,5e-6 0.25888,0.0318 0.367888,0.09538 0.118084,0.06359 0.222546,0.140803 0.313387,0.231634 0.09992,0.08176 0.186211,0.177137 0.258885,0.286136 0.08175,0.09992 0.158959,0.190762 0.231634,0.27251 m -2.94311,2.902233 c 0.08175,-0.145337 0.199838,-0.258882 0.354263,-0.340637 0.154419,-0.09083 0.295216,-0.190755 0.422391,-0.299762 0.127168,-0.109001 0.213463,-0.245256 0.258884,-0.408765 0.04541,-0.172587 -3e-6,-0.40422 -0.136255,-0.694901 l -1.185419,1.45793 c -2e-6,0.14534 0.0091,0.231635 0.02725,0.258884 0.02725,0.01817 0.113544,0.02725 0.258885,0.02725" />
        <path
           id="path4359-6"
           d="m 66.100445,34.320556 c -2e-6,0.136259 0.01362,0.258888 0.04088,0.367888 0.03633,0.109008 0.06813,0.204387 0.09538,0.286136 0.03633,0.08176 0.06812,0.158968 0.09538,0.231634 0.03633,0.07267 0.0545,0.145342 0.0545,0.218008 0.06358,-0.136252 0.140794,-0.25434 0.231633,-0.354263 0.09992,-0.109001 0.199838,-0.208921 0.299762,-0.299762 0.09992,-0.09083 0.195295,-0.168044 0.286135,-0.231633 0.09992,-0.07267 0.18167,-0.145335 0.245259,-0.218008 0.408762,-0.07267 0.740315,-0.03179 0.994663,0.122629 0.263421,0.145343 0.481429,0.354267 0.654024,0.626774 0.172584,0.272513 0.317923,0.585899 0.436016,0.94016 0.127166,0.354265 0.258879,0.699444 0.39514,1.035539 -6e-6,0.272511 0.01362,0.531395 0.04088,0.776654 0.02725,0.245259 0.04541,0.485976 0.0545,0.722152 0.01816,0.245258 0.0227,0.485976 0.01363,0.722152 -0.0091,0.245258 -0.04542,0.504142 -0.109004,0.776654 -0.136261,-2e-6 -0.245265,0.02725 -0.327012,0.08175 -0.08176,0.0545 -0.15897,0.10446 -0.231634,0.14988 -0.06359,0.0545 -0.13626,0.09083 -0.218008,0.109004 -0.07267,0.02725 -0.177137,0.0091 -0.313387,-0.0545 -0.13626,-0.272511 -0.218013,-0.59044 -0.245259,-0.953785 -0.02726,-0.354264 -0.04997,-0.717611 -0.06813,-1.090041 -0.01817,-0.381514 -0.05905,-0.749402 -0.12263,-1.103666 -0.05451,-0.354262 -0.18622,-0.667648 -0.39514,-0.940161 -0.181677,0.09084 -0.340641,0.222553 -0.476893,0.39514 -0.127174,0.163508 -0.245262,0.34064 -0.354263,0.531395 -0.109007,0.190758 -0.218011,0.381515 -0.327012,0.572271 -0.109007,0.181675 -0.236178,0.340639 -0.381514,0.476893 -0.136258,0.127172 -0.299764,0.218009 -0.490519,0.27251 -0.190759,0.04542 -0.422392,0.02271 -0.694901,-0.06813 -0.227093,-0.09084 -0.39514,-0.213466 -0.504143,-0.367889 -0.09992,-0.163505 -0.163507,-0.34972 -0.190758,-0.558646 -0.02725,-0.208923 -0.02725,-0.431473 0,-0.66765 0.02725,-0.245257 0.05904,-0.495058 0.09538,-0.749403 0.03633,-0.25434 0.06359,-0.508682 0.08175,-0.763028 0.02725,-0.25434 0.01817,-0.495057 -0.02725,-0.722152 -10e-7,-0.199837 0.05904,-0.376968 0.177132,-0.531395 0.118086,-0.154418 0.249799,-0.25888 0.395139,-0.313387 0.154421,-0.0545 0.304302,-0.04087 0.449642,0.04088 0.154421,0.08176 0.267966,0.258889 0.340638,0.531395" />
        <path
           id="path4361-7"
           d="m 74.440537,29.197364 c 0.0545,0.354272 0.07267,0.717619 0.0545,1.090041 -0.0091,0.372438 -0.0318,0.74941 -0.06813,1.130917 -0.02725,0.372438 -0.06359,0.744868 -0.109004,1.117292 -0.03634,0.372436 -0.05451,0.735783 -0.0545,1.090041 0.09992,0.109009 0.218005,0.195303 0.354264,0.258884 0.136251,0.06359 0.267964,0.127176 0.395139,0.190757 0.127167,0.06359 0.231629,0.140802 0.313387,0.231634 0.09083,0.08176 0.13625,0.195303 0.136255,0.340638 -0.09992,0.04542 -0.199845,0.07267 -0.299761,0.08175 -0.09084,0.0091 -0.190761,0.01363 -0.299761,0.01363 -0.09992,4e-6 -0.199845,0.0045 -0.299761,0.01363 -0.09993,4e-6 -0.199845,0.02271 -0.299762,0.06813 -3e-6,0.254347 -0.0091,0.531399 -0.02725,0.831157 -0.01817,0.299763 -0.03634,0.608608 -0.0545,0.926534 -0.0091,0.308847 -0.01363,0.626775 -0.01363,0.953786 0.0091,0.317929 0.04087,0.631315 0.09538,0.94016 -0.208928,0.09084 -0.381517,0.136255 -0.517769,0.136255 -0.136258,0 -0.304306,-0.04542 -0.504144,-0.136255 -0.145341,-0.363347 -0.231636,-0.699442 -0.258885,-1.008288 -0.01817,-0.308843 -0.01363,-0.608604 0.01363,-0.899283 0.02725,-0.290676 0.0545,-0.576811 0.08175,-0.858407 0.02725,-0.281591 0.01362,-0.57681 -0.04088,-0.885659 -0.06359,-0.09992 -0.149883,-0.15896 -0.258885,-0.177131 -0.09992,-0.02725 -0.213468,-0.03179 -0.340638,-0.01363 -0.127173,0.0091 -0.263428,0.02726 -0.408765,0.0545 -0.136256,0.01817 -0.26797,0.02271 -0.39514,0.01363 -0.127172,-0.0091 -0.24526,-0.04541 -0.354263,-0.109004 -0.09992,-0.07267 -0.181674,-0.195295 -0.245259,-0.367889 -0.0545,-0.145334 -0.04996,-0.25888 0.01363,-0.340638 0.06358,-0.08175 0.154422,-0.140792 0.27251,-0.177131 0.127171,-0.04541 0.27251,-0.06812 0.436017,-0.06813 0.163505,-0.0091 0.322469,-0.01362 0.476892,-0.01362 l 0.803906,0 0.42239,-4.646299 c -2e-6,-0.299751 0.04996,-0.472341 0.149881,-0.517769 0.09992,-0.05449 0.208921,-0.04087 0.327012,0.04088 0.127168,0.07268 0.240714,0.186225 0.340638,0.340638 0.109,0.145348 0.163502,0.263436 0.163506,0.354263" />
        <path
           id="path4363-0"
           d="m 17.969186,46.229251 c 0.0545,0.354272 0.07267,0.717619 0.0545,1.09004 -0.0091,0.372439 -0.0318,0.749411 -0.06813,1.130918 -0.02726,0.372437 -0.06359,0.744867 -0.109004,1.117292 -0.03634,0.372436 -0.05451,0.735782 -0.0545,1.09004 0.09992,0.109009 0.218004,0.195304 0.354263,0.258885 0.136251,0.06359 0.267964,0.127176 0.39514,0.190757 0.127167,0.06359 0.231629,0.140801 0.313386,0.231634 0.09083,0.08176 0.136251,0.195303 0.136255,0.340637 -0.09992,0.04542 -0.199845,0.07267 -0.299761,0.08175 -0.09084,0.0091 -0.190761,0.01363 -0.299761,0.01362 -0.09992,4e-6 -0.199845,0.0045 -0.299761,0.01363 -0.09992,3e-6 -0.199845,0.02271 -0.299761,0.06813 -4e-6,0.254346 -0.0091,0.531398 -0.02725,0.831156 -0.01817,0.299764 -0.03634,0.608608 -0.0545,0.926535 -0.0091,0.308846 -0.01363,0.626775 -0.01363,0.953785 0.0091,0.31793 0.04087,0.631316 0.09538,0.940161 -0.208928,0.09084 -0.381518,0.136255 -0.51777,0.136255 -0.136258,0 -0.304306,-0.04542 -0.504144,-0.136255 -0.145341,-0.363347 -0.231636,-0.699443 -0.258884,-1.008288 -0.01817,-0.308844 -0.01363,-0.608605 0.01363,-0.899284 0.02725,-0.290675 0.0545,-0.57681 0.08175,-0.858407 0.02725,-0.281591 0.01362,-0.57681 -0.04088,-0.885658 -0.06359,-0.09992 -0.149883,-0.15896 -0.258885,-0.177132 -0.09992,-0.02725 -0.213468,-0.03179 -0.340638,-0.01362 -0.127173,0.0091 -0.263428,0.02725 -0.408765,0.0545 -0.136256,0.01817 -0.267969,0.02271 -0.39514,0.01362 -0.127172,-0.0091 -0.24526,-0.04541 -0.354263,-0.109004 -0.09992,-0.07267 -0.181674,-0.195294 -0.245259,-0.367888 -0.0545,-0.145335 -0.04996,-0.25888 0.01363,-0.340638 0.06359,-0.08175 0.154422,-0.140792 0.272511,-0.177132 0.12717,-0.04541 0.272509,-0.06812 0.436016,-0.06813 0.163505,-0.0091 0.322469,-0.01362 0.476893,-0.01363 l 0.803905,0 0.422391,-4.646298 c -3e-6,-0.299752 0.04996,-0.472341 0.14988,-0.51777 0.09992,-0.05449 0.208922,-0.04087 0.327012,0.04088 0.127168,0.07268 0.240714,0.186225 0.340638,0.340638 0.109,0.145348 0.163502,0.263435 0.163506,0.354263" />
        <path
           id="path4365-1"
           d="m 20.881213,46.420008 c 0.06358,0.454192 0.122628,0.89475 0.177132,1.321674 0.0545,0.417857 0.09538,0.826621 0.122629,1.226296 0.03633,0.399688 0.04996,0.794827 0.04088,1.185419 -2e-6,0.390603 -0.0318,0.781201 -0.09538,1.171794 l 0.258885,0 c 0.127169,-0.06358 0.240715,-0.154418 0.340638,-0.27251 0.109001,-0.118083 0.208922,-0.236171 0.299761,-0.354263 0.09992,-0.118083 0.199838,-0.218003 0.299761,-0.299761 0.109001,-0.08175 0.227089,-0.122625 0.354263,-0.12263 0.190754,-0.0545 0.367885,-0.0545 0.531395,0 0.163502,0.05451 0.317925,0.140802 0.463267,0.258885 0.145335,0.109009 0.28159,0.23618 0.408766,0.381514 0.127166,0.145343 0.254338,0.281598 0.381514,0.408765 0.06358,0.390602 0.113541,0.740323 0.149881,1.049164 0.03633,0.299765 0.0545,0.594984 0.0545,0.885659 -6e-6,0.281595 -0.01817,0.576814 -0.0545,0.885658 -0.03634,0.299762 -0.0863,0.644941 -0.149881,1.035538 -0.118093,0.136256 -0.254348,0.254343 -0.408765,0.354264 -0.145343,0.09992 -0.345184,0.14988 -0.599523,0.14988 -0.127175,-0.254343 -0.204386,-0.522311 -0.231633,-0.803905 -0.01817,-0.281593 -0.02726,-0.567728 -0.02725,-0.858407 -4e-6,-0.290676 -0.01363,-0.576811 -0.04088,-0.858407 -0.01817,-0.281591 -0.09084,-0.554101 -0.218008,-0.817531 -0.390601,0.390601 -0.726697,0.831159 -1.008288,1.321675 -0.272512,0.49052 -0.54048,0.994663 -0.803905,1.512431 -0.127173,0.190758 -0.254344,0.299762 -0.381514,0.327013 -0.127173,0.02725 -0.254344,0.01817 -0.381514,-0.02725 -0.127172,-0.0545 -0.254344,-0.118088 -0.381515,-0.190758 -0.127171,-0.07267 -0.254343,-0.109003 -0.381514,-0.109004 -0.07267,-0.708525 -0.104462,-1.403425 -0.09538,-2.084703 0.01817,-0.690356 0.04088,-1.380714 0.06813,-2.071077 0.03634,-0.690354 0.06359,-1.389796 0.08175,-2.098328 0.01817,-0.717603 0,-1.462464 -0.0545,-2.234584 l 0.231634,-0.776654 c 0.136254,-0.06358 0.263426,-0.08628 0.381514,-0.06813 0.127171,0.01818 0.240716,0.0636 0.340638,0.136256 0.09992,0.06359 0.17713,0.140806 0.231633,0.231633 0.06358,0.08176 0.09538,0.14989 0.09538,0.204383" />
        <path
           id="path4367-8"
           d="m 27.141284,46.638016 0,0.872033 c -0.08176,8e-6 -0.145341,-0.01362 -0.190757,-0.04088 -0.03634,-0.02724 -0.06359,-0.05904 -0.08175,-0.09538 -0.02725,-0.03633 -0.04088,-0.08629 -0.04088,-0.149881 -0.145341,0.145347 -0.290679,0.231642 -0.436016,0.258885 -0.14534,0.01817 -0.295221,0.02726 -0.449642,0.02725 -0.07267,-0.07266 -0.14534,-0.158956 -0.218008,-0.258885 -0.06359,-0.108996 -0.113547,-0.218 -0.149881,-0.327012 -0.02725,-0.108996 -0.04088,-0.213458 -0.04088,-0.313387 0.0091,-0.108995 0.04542,-0.204373 0.109004,-0.286136 0.07267,-0.145329 0.17713,-0.227082 0.313386,-0.245259 0.136254,-0.01816 0.277051,0.0046 0.422391,0.06813 0.154421,0.05451 0.29976,0.131722 0.436016,0.231633 0.136253,0.09085 0.245257,0.177141 0.327013,0.258885 m -0.313387,3.556258 c 0.08175,0.436021 0.109002,0.876579 0.08175,1.321674 -0.01817,0.43602 -0.0545,0.867494 -0.109004,1.294424 -0.0545,0.426935 -0.113548,0.840241 -0.177132,1.239921 -0.0545,0.399683 -0.08175,0.781197 -0.08175,1.144543 -0.154424,0.154422 -0.290679,0.240717 -0.408765,0.258885 -0.118089,0.01817 -0.231635,0.0091 -0.340638,-0.02725 -0.109005,-0.04542 -0.22255,-0.09538 -0.340637,-0.14988 -0.109005,-0.0545 -0.231634,-0.08175 -0.367889,-0.08175 -0.154423,-1.026454 -0.158965,-1.993864 -0.01363,-2.902234 0.145339,-0.917446 0.436016,-1.816729 0.872033,-2.69785 0.145337,6e-6 0.258883,0.01817 0.340638,0.0545 0.09084,0.03634 0.163504,0.08176 0.218008,0.136255 0.0545,0.05451 0.10446,0.118093 0.14988,0.190757 0.04542,0.07267 0.104461,0.145344 0.177132,0.218008" />
        <path
           id="path4369-5"
           d="m 29.668177,51.352442 c -2e-6,0.136259 0.01362,0.258889 0.04088,0.367889 0.03633,0.109008 0.06813,0.204386 0.09538,0.286136 0.03633,0.08176 0.06813,0.158967 0.09538,0.231633 0.03633,0.07267 0.0545,0.145342 0.0545,0.218008 0.06358,-0.136251 0.140795,-0.254339 0.231634,-0.354263 0.09992,-0.109 0.199838,-0.208921 0.299761,-0.299761 0.09992,-0.09083 0.195296,-0.168044 0.286136,-0.231634 0.09992,-0.07267 0.18167,-0.145334 0.245259,-0.218008 0.408762,-0.07267 0.740315,-0.03179 0.994662,0.12263 0.263422,0.145343 0.48143,0.354267 0.654025,0.626773 0.172584,0.272514 0.317923,0.5859 0.436016,0.94016 0.127166,0.354266 0.258879,0.699445 0.39514,1.035539 -6e-6,0.272511 0.01362,0.531396 0.04088,0.776654 0.02725,0.24526 0.04541,0.485977 0.0545,0.722152 0.01816,0.245259 0.0227,0.485976 0.01363,0.722152 -0.0091,0.245258 -0.04542,0.504143 -0.109004,0.776654 -0.136261,-10e-7 -0.245265,0.02725 -0.327012,0.08175 -0.08176,0.0545 -0.15897,0.104461 -0.231634,0.149881 -0.06359,0.0545 -0.13626,0.09083 -0.218008,0.109004 -0.07268,0.02725 -0.177137,0.0091 -0.313387,-0.0545 -0.13626,-0.272512 -0.218013,-0.59044 -0.245259,-0.953786 -0.02726,-0.354264 -0.04997,-0.71761 -0.06813,-1.090041 -0.01817,-0.381513 -0.05905,-0.749402 -0.122629,-1.103666 -0.05451,-0.354261 -0.18622,-0.667648 -0.39514,-0.94016 -0.181677,0.09084 -0.340641,0.222552 -0.476893,0.39514 -0.127175,0.163508 -0.245262,0.340639 -0.354263,0.531395 -0.109007,0.190758 -0.218011,0.381515 -0.327012,0.572271 -0.109007,0.181674 -0.236178,0.340638 -0.381514,0.476893 -0.136258,0.127171 -0.299764,0.218008 -0.490519,0.27251 -0.190759,0.04542 -0.422392,0.02271 -0.694901,-0.06813 -0.227093,-0.09084 -0.395141,-0.213466 -0.504144,-0.367889 -0.09992,-0.163506 -0.163506,-0.349721 -0.190757,-0.558646 -0.02725,-0.208923 -0.02725,-0.431473 0,-0.66765 0.02725,-0.245257 0.05904,-0.495058 0.09538,-0.749403 0.03633,-0.25434 0.06358,-0.508683 0.08175,-0.763029 0.02725,-0.254339 0.01817,-0.495056 -0.02725,-0.722152 -1e-6,-0.199836 0.05904,-0.376968 0.177131,-0.531394 0.118087,-0.154418 0.2498,-0.25888 0.39514,-0.313387 0.154421,-0.0545 0.304302,-0.04087 0.449642,0.04088 0.15442,0.08176 0.267966,0.25889 0.340638,0.531395" />
        <path
           id="path4371-1"
           d="m 38.103644,54.118421 c 0.04541,0.499603 0.08175,1.021913 0.109005,1.566933 0.03633,0.554104 0.04541,1.108207 0.02725,1.662312 -0.01817,0.554102 -0.07722,1.09458 -0.177132,1.621436 -0.09992,0.535933 -0.26343,1.035534 -0.490518,1.498806 -0.218012,0.472346 -0.508689,0.899278 -0.872033,1.280798 -0.363349,0.390591 -0.817532,0.713061 -1.362551,0.967411 -0.381515,0.381507 -0.808447,0.576805 -1.280798,0.585897 -0.481434,0.01816 -0.981035,-0.10447 -1.498806,-0.367889 0.508687,-0.308852 1.017372,-0.654031 1.526057,-1.035539 0.508686,-0.38152 0.958327,-0.80391 1.348926,-1.267172 0.39968,-0.454188 0.708524,-0.95379 0.926534,-1.498806 0.22709,-0.53594 0.308843,-1.117294 0.245259,-1.744065 l 0,-2.00295 c -0.127173,0.06359 -0.26797,0.09992 -0.42239,0.109004 -0.154425,0 -0.313389,-0.01362 -0.476893,-0.04088 -0.154424,-0.03634 -0.308846,-0.08175 -0.463267,-0.136256 -0.14534,-0.06358 -0.281595,-0.131712 -0.408766,-0.204382 -0.254343,-0.499601 -0.372431,-0.999203 -0.354263,-1.498806 0.01817,-0.4996 0.213466,-1.008285 0.585897,-1.526057 0.272509,-0.245256 0.576812,-0.417845 0.912909,-0.51777 0.336094,-0.109 0.631313,-0.09992 0.885658,0.02725 0.308842,0.127176 0.522308,0.295223 0.640399,0.504144 0.127168,0.199844 0.213463,0.417852 0.258885,0.654025 0.0545,0.236178 0.09537,0.476895 0.122629,0.722152 0.02725,0.236177 0.09992,0.449643 0.218008,0.640399 m -2.261834,0.286135 c 0.109002,-0.118086 0.190755,-0.240716 0.245259,-0.367888 0.06358,-0.12717 0.118086,-0.2498 0.163506,-0.367889 0.04542,-0.12717 0.09992,-0.254341 0.163506,-0.381514 0.06358,-0.127169 0.149879,-0.254341 0.258885,-0.381515 -0.109006,0.127174 -0.236178,0.258887 -0.381514,0.39514 -0.145341,0.136257 -0.272512,0.26797 -0.381515,0.39514 -0.09992,0.127173 -0.168049,0.254344 -0.204382,0.381514 -0.02725,0.118089 0.01817,0.227093 0.136255,0.327012" />
        <path
           id="path4373-9"
           d="m 41.570698,49.199612 c 0.0545,0.118094 0.06812,0.222556 0.04088,0.313386 -0.01817,0.08176 -0.06813,0.154429 -0.149881,0.218009 -0.07267,0.05451 -0.168051,0.09993 -0.286136,0.136255 -0.109006,0.02726 -0.222552,0.04088 -0.340638,0.04088 0.236173,0.245265 0.481432,0.495066 0.735778,0.749403 0.25434,0.245264 0.481431,0.504148 0.681275,0.776654 0.199837,0.272514 0.349718,0.563192 0.449642,0.872033 0.109,0.308848 0.131709,0.640401 0.06813,0.994662 -4e-6,0.372433 -0.06813,0.685819 -0.204383,0.94016 -0.136259,0.24526 -0.308848,0.449643 -0.517769,0.613148 -0.208928,0.163507 -0.445103,0.29522 -0.708527,0.39514 -0.254345,0.09084 -0.504146,0.168048 -0.749403,0.231634 -0.363348,0.127171 -0.717611,0.140796 -1.062789,0.04088 -0.336097,-0.109004 -0.622232,-0.286135 -0.858407,-0.531395 -0.06359,-0.236174 -0.02271,-0.395139 0.122629,-0.476893 0.154422,-0.09083 0.340637,-0.149879 0.558646,-0.177131 0.227091,-0.02725 0.458724,-0.04996 0.694901,-0.06813 0.245257,-0.02725 0.426931,-0.104461 0.54502,-0.231633 0.245257,-0.12717 0.436014,-0.258883 0.572272,-0.39514 0.145336,-0.145337 0.281591,-0.336094 0.408765,-0.572272 0.03633,-0.317925 -0.0318,-0.604061 -0.204383,-0.858407 -0.172592,-0.254339 -0.381516,-0.485972 -0.626773,-0.694901 -0.245261,-0.218004 -0.499604,-0.426928 -0.763029,-0.626773 -0.254344,-0.199836 -0.449642,-0.404218 -0.585897,-0.613148 -0.136255,-0.218003 -0.181674,-0.449636 -0.136255,-0.694901 0.04542,-0.254337 0.2498,-0.545014 0.613148,-0.872033 0.181672,7e-6 0.358804,-0.01816 0.531395,-0.0545 0.181672,-0.04541 0.345178,-0.06812 0.490519,-0.06813 0.154419,7e-6 0.290674,0.04088 0.408765,0.122629 0.118085,0.08176 0.208921,0.245266 0.27251,0.490519" />
        <path
           id="path4375-4"
           d="m 53.682924,46.229251 c 0.0545,0.354272 0.07267,0.717619 0.0545,1.09004 -0.0091,0.372439 -0.0318,0.749411 -0.06813,1.130918 -0.02725,0.372437 -0.06359,0.744867 -0.109004,1.117292 -0.03634,0.372436 -0.0545,0.735782 -0.0545,1.09004 0.09992,0.109009 0.218004,0.195304 0.354263,0.258885 0.136251,0.06359 0.267964,0.127176 0.39514,0.190757 0.127167,0.06359 0.231629,0.140801 0.313387,0.231634 0.09083,0.08176 0.13625,0.195303 0.136255,0.340637 -0.09992,0.04542 -0.199845,0.07267 -0.299761,0.08175 -0.09084,0.0091 -0.190762,0.01363 -0.299761,0.01362 -0.09992,4e-6 -0.199845,0.0045 -0.299762,0.01363 -0.09992,3e-6 -0.199844,0.02271 -0.299761,0.06813 -3e-6,0.254346 -0.0091,0.531398 -0.02725,0.831156 -0.01817,0.299764 -0.03634,0.608608 -0.0545,0.926535 -0.0091,0.308846 -0.01363,0.626775 -0.01362,0.953785 0.0091,0.31793 0.04087,0.631316 0.09538,0.940161 -0.208928,0.09084 -0.381517,0.136255 -0.517769,0.136255 -0.136258,0 -0.304306,-0.04542 -0.504144,-0.136255 -0.145341,-0.363347 -0.231636,-0.699443 -0.258885,-1.008288 -0.01817,-0.308844 -0.01363,-0.608605 0.01363,-0.899284 0.02725,-0.290675 0.0545,-0.57681 0.08175,-0.858407 0.02725,-0.281591 0.01362,-0.57681 -0.04088,-0.885658 -0.06359,-0.09992 -0.149883,-0.15896 -0.258884,-0.177132 -0.09992,-0.02725 -0.213469,-0.03179 -0.340638,-0.01362 -0.127173,0.0091 -0.263428,0.02725 -0.408765,0.0545 -0.136257,0.01817 -0.26797,0.02271 -0.39514,0.01362 -0.127172,-0.0091 -0.24526,-0.04541 -0.354263,-0.109004 -0.09992,-0.07267 -0.181674,-0.195294 -0.24526,-0.367888 -0.0545,-0.145335 -0.04996,-0.25888 0.01363,-0.340638 0.06359,-0.08175 0.154422,-0.140792 0.27251,-0.177132 0.127171,-0.04541 0.272509,-0.06812 0.436016,-0.06813 0.163505,-0.0091 0.322469,-0.01362 0.476893,-0.01363 l 0.803905,0 0.422391,-4.646298 c -3e-6,-0.299752 0.04996,-0.472341 0.149881,-0.51777 0.09992,-0.05449 0.208921,-0.04087 0.327012,0.04088 0.127168,0.07268 0.240714,0.186225 0.340638,0.340638 0.109,0.145348 0.163502,0.263435 0.163506,0.354263" />
        <path
           id="path4377-4"
           d="m 60.355593,51.257064 c 0.23617,0.626777 0.345174,1.194506 0.327012,1.703188 -0.01817,0.508688 -0.218014,1.012831 -0.599523,1.512432 -0.490522,0.490519 -1.031,0.808447 -1.621435,0.953785 -0.590442,0.145339 -1.199047,0.149881 -1.825818,0.01363 -0.127173,-0.0545 -0.240719,-0.122629 -0.340638,-0.204383 -0.09084,-0.09084 -0.181675,-0.190756 -0.27251,-0.299761 -0.09084,-0.109003 -0.186216,-0.222549 -0.286136,-0.340638 -0.09084,-0.118086 -0.195299,-0.240716 -0.313387,-0.367888 -0.07267,-0.245258 -0.109004,-0.517768 -0.109004,-0.817531 0,-0.299759 0.03179,-0.594978 0.09538,-0.885658 0.06358,-0.299758 0.154422,-0.581351 0.27251,-0.844782 0.118087,-0.263422 0.267967,-0.485972 0.449642,-0.66765 0.308843,-0.436011 0.667648,-0.758481 1.076415,-0.967411 0.408763,-0.218002 0.812986,-0.317922 1.21267,-0.299761 0.408762,0.0091 0.785734,0.140803 1.130917,0.39514 0.345175,0.245264 0.613143,0.617694 0.803906,1.117292 M 59.102046,52.2381 c 0.0545,-0.127168 0.05904,-0.258881 0.01362,-0.395139 -0.04542,-0.136252 -0.122633,-0.240714 -0.231633,-0.313387 -0.109008,-0.08175 -0.236179,-0.113542 -0.381515,-0.09538 -0.136258,0.01817 -0.272513,0.118092 -0.408765,0.299761 -0.09992,-0.118083 -0.218011,-0.136251 -0.354263,-0.0545 -0.127174,0.08176 -0.249804,0.190761 -0.367889,0.327013 -0.0545,0.127175 -0.136257,0.267971 -0.245259,0.42239 -0.09992,0.145342 -0.190759,0.304306 -0.27251,0.476893 -0.08176,0.172593 -0.131715,0.349724 -0.149881,0.531395 -0.0091,0.181676 0.04542,0.367891 0.163506,0.558646 l 1.226296,0 c 0.381511,-0.136253 0.644937,-0.367887 0.79028,-0.694901 0.145334,-0.336093 0.218004,-0.690356 0.218008,-1.06279" />
        <path
           id="path4379-4"
           d="m 74.00601,43.640404 c 0.145332,0.354275 0.236169,0.753956 0.27251,1.199045 0.04541,0.436026 0.06358,0.89021 0.0545,1.362551 -7e-6,0.463276 -0.01363,0.935626 -0.04088,1.417053 -0.02726,0.472358 -0.04088,0.922 -0.04088,1.348925 -0.199847,0.499608 -0.295226,0.99921 -0.286136,1.498806 0.0091,0.490523 0.04541,0.981041 0.109004,1.471555 0.07266,0.490522 0.140791,0.981039 0.204383,1.471555 0.06358,0.49052 0.0545,0.98558 -0.02725,1.485181 -0.336102,0.208925 -0.67674,0.354263 -1.021913,0.436016 -0.345185,0.08175 -0.70399,0.12263 -1.076416,0.12263 -0.363351,0 -0.744864,-0.02725 -1.144542,-0.08175 -0.390601,-0.06358 -0.799366,-0.131712 -1.226296,-0.204382 -0.145341,-0.145338 -0.31793,-0.290677 -0.51777,-0.436016 -0.190758,-0.145338 -0.381515,-0.299761 -0.572271,-0.463268 -0.190758,-0.163504 -0.367889,-0.331552 -0.531395,-0.504144 -0.163506,-0.181671 -0.281594,-0.37697 -0.354263,-0.585897 0,-0.199838 0,-0.417846 0,-0.654024 0.0091,-0.236172 0.03179,-0.467806 0.06813,-0.694901 0.03634,-0.236171 0.09084,-0.458721 0.163507,-0.66765 0.07267,-0.20892 0.177131,-0.386051 0.313386,-0.531395 0.208924,-0.199835 0.436016,-0.354258 0.681276,-0.463267 0.245257,-0.118082 0.490516,-0.199835 0.735777,-0.245259 0.245257,-0.0545 0.485974,-0.08629 0.722152,-0.09538 0.245256,-0.0091 0.472348,-0.01362 0.681276,-0.01363 0.136251,5e-6 0.286132,0.05451 0.449642,0.163506 0.163502,0.109009 0.313382,0.199846 0.449641,0.27251 0.145335,0.07268 0.263422,0.09084 0.354264,0.0545 0.09992,-0.03633 0.149875,-0.199835 0.14988,-0.490518 L 72.915964,43.6404 c 0.06358,-0.208912 0.145333,-0.340625 0.245259,-0.39514 0.09992,-0.06357 0.199835,-0.0772 0.299761,-0.04088 0.09991,0.03635 0.195293,0.09993 0.286136,0.190757 0.09991,0.08176 0.186209,0.163518 0.258885,0.245259 m -1.73044,8.733951 c -0.136259,-0.218004 -0.331558,-0.404219 -0.585897,-0.558645 -0.245263,-0.163503 -0.499605,-0.272507 -0.763028,-0.327013 -0.254346,-0.0545 -0.490521,-0.04087 -0.708527,0.04088 -0.21801,0.08176 -0.363349,0.258888 -0.436016,0.531395 -0.127174,0.154425 -0.190759,0.345182 -0.190757,0.572271 -2e-6,0.227095 0.06358,0.408768 0.190757,0.54502 0.436014,0.29068 0.858404,0.504146 1.267172,0.640399 0.417845,0.127173 0.82661,0.190759 1.226296,0.190758 l 0,-1.635062" />
        <path
           id="path4381-1"
           d="m 79.702749,51.257064 c 0.23617,0.626777 0.345174,1.194506 0.327012,1.703188 -0.01817,0.508688 -0.218013,1.012831 -0.599522,1.512432 -0.490523,0.490519 -1.031001,0.808447 -1.621436,0.953785 -0.590441,0.145339 -1.199047,0.149881 -1.825818,0.01363 -0.127173,-0.0545 -0.240719,-0.122629 -0.340638,-0.204383 -0.09084,-0.09084 -0.181674,-0.190756 -0.27251,-0.299761 -0.09084,-0.109003 -0.186216,-0.222549 -0.286136,-0.340638 -0.09084,-0.118086 -0.195299,-0.240716 -0.313386,-0.367888 -0.07267,-0.245258 -0.109005,-0.517768 -0.109004,-0.817531 -10e-7,-0.299759 0.03179,-0.594978 0.09538,-0.885658 0.06359,-0.299758 0.154422,-0.581351 0.27251,-0.844782 0.118088,-0.263422 0.267968,-0.485972 0.449642,-0.66765 0.308844,-0.436011 0.667649,-0.758481 1.076415,-0.967411 0.408763,-0.218002 0.812986,-0.317922 1.212671,-0.299761 0.408761,0.0091 0.785733,0.140803 1.130917,0.39514 0.345175,0.245264 0.613143,0.617694 0.803905,1.117292 M 78.449202,52.2381 c 0.0545,-0.127168 0.05904,-0.258881 0.01363,-0.395139 -0.04542,-0.136252 -0.122634,-0.240714 -0.231634,-0.313387 -0.109008,-0.08175 -0.236179,-0.113542 -0.381514,-0.09538 -0.136258,0.01817 -0.272513,0.118092 -0.408765,0.299761 -0.09992,-0.118083 -0.218011,-0.136251 -0.354264,-0.0545 -0.127174,0.08176 -0.249803,0.190761 -0.367888,0.327013 -0.0545,0.127175 -0.136258,0.267971 -0.24526,0.42239 -0.09992,0.145342 -0.190759,0.304306 -0.27251,0.476893 -0.08175,0.172593 -0.131715,0.349724 -0.14988,0.531395 -0.0091,0.181676 0.04542,0.367891 0.163506,0.558646 l 1.226296,0 c 0.38151,-0.136253 0.644937,-0.367887 0.790279,-0.694901 0.145335,-0.336093 0.218004,-0.690356 0.218008,-1.06279" />
      </g>
      <path
         sodipodi:nodetypes="cscsscc"
         id="path3620-8-7"
         d="m 47.49703,13.038768 c -22.32317,0 -40.4062503,14.798088 -40.4062503,33.0625 0,7.08521 2.73636,13.62085 7.3750003,19 -2.51197,-4.30509 -3.90625,-9.12885 -3.90625,-14.21875 0,-18.264408 18.08308,-33.0625 40.40625,-33.0625 13.58033,0 25.60841,5.470645 32.9375,13.875 C 77.36107,20.642726 63.51326,13.038768 47.49703,13.038768 z"
         style="color:#000000;fill:url(#linearGradient2879);fill-opacity:1;fill-rule:nonzero;stroke:none;stroke-width:0.5;marker:none;visibility:visible;display:inline;overflow:visible;filter:url(#filter4471);enable-background:accumulate" />
    </g>
  </g>
</svg>
